%
M48
M72
T01C0.01969
T02C0.02362
T03C0.03150
T04C0.03543
T05C0.04000
T06C0.06693
T07C0.07874
T08C0.12598
%
T01
X63750Y22250
X63750Y25375
X63750Y28500
X66875Y28500
X66875Y25375
X66875Y22250
X70000Y22250
X70000Y25375
X70000Y28500
X56875Y71000
X56875Y81000
X56875Y91000
X56875Y101000
X56875Y111000
X56875Y121000
X56875Y131000
X56875Y141000
X56875Y151000
X56875Y161000
X56875Y171000
X56875Y181000
X56875Y191000
X63750Y233500
X63750Y236625
X63750Y239750
X66875Y239750
X66875Y236625
X66875Y233500
X70000Y233500
X70000Y236625
X70000Y239750
X123750Y239750
X123750Y236625
X123750Y233500
X126875Y233500
X126875Y236625
X126875Y239750
X130000Y239750
X130000Y236625
X130000Y233500
X136875Y211000
X136875Y201000
X136875Y191000
X136875Y181000
X136875Y171000
X136875Y161000
X136875Y151000
X136875Y141000
X136875Y131000
X136875Y121000
X136875Y111000
X136875Y101000
X123750Y28500
X123750Y25375
X123750Y22250
X126875Y22250
X126875Y25375
X126875Y28500
X130000Y28500
X130000Y25375
X130000Y22250
X136875Y71000
T02
X91875Y67250
X93125Y73500
X85625Y98500
X74375Y113500
X79375Y117250
X85625Y136000
X93125Y134750
X96875Y151000
X79375Y167250
X74375Y149750
X65625Y138500
X133125Y67250
X123125Y39100
X100625Y39100
X99375Y216000
X104375Y216000
X109375Y216000
X114375Y216000
X119375Y216000
X124375Y216000
X129375Y216000
X94375Y216000
X89375Y216000
X84375Y216000
X79375Y216000
X74375Y216000
X69375Y216000
T03
X109375Y46000
X100625Y136000
X105625Y151000
X123125Y183500
T04
X116560Y195375
X106717Y195375
X96875Y195375
X87032Y195375
X77189Y195375
T05
X51875Y36000
X51875Y46000
X51875Y56000
X51875Y66000
X51875Y76000
X51875Y86000
X51875Y96000
X51875Y106000
X51875Y116000
X51875Y126000
X51875Y136000
X51875Y146000
X51875Y156000
X51875Y166000
X51875Y176000
X51875Y186000
X51875Y196000
X51875Y206000
X51875Y216000
X141875Y216000
X141875Y206000
X141875Y196000
X141875Y186000
X141875Y176000
X141875Y166000
X141875Y156000
X141875Y146000
X141875Y136000
X141875Y126000
X141875Y116000
X141875Y106000
X141875Y96000
X141875Y86000
X141875Y76000
X141875Y66000
X141875Y56000
X141875Y46000
X141875Y36000
T06
X76250Y54455
X76250Y82014
X117500Y82014
X117500Y54455
T07
X131875Y226000
X141875Y226000
X51875Y226000
T08
X59375Y11000
X134375Y11000
X134375Y251000
X59375Y251000
M30
