G75*
%MOIN*%
%OFA0B0*%
%FSLAX25Y25*%
%IPPOS*%
%LPD*%
%AMOC8*
5,1,8,0,0,1.08239X$1,22.5*
%
%ADD10C,0.00000*%
%ADD11C,0.08750*%
D10*
X0045625Y0001000D02*
X0045625Y0021000D01*
X0061875Y0021000D01*
X0061875Y0029750D01*
X0049375Y0029750D01*
X0049255Y0029752D01*
X0049135Y0029758D01*
X0049015Y0029767D01*
X0048895Y0029781D01*
X0048777Y0029798D01*
X0048658Y0029819D01*
X0048541Y0029844D01*
X0048424Y0029873D01*
X0048308Y0029905D01*
X0048193Y0029941D01*
X0048080Y0029981D01*
X0047968Y0030024D01*
X0047857Y0030071D01*
X0047748Y0030121D01*
X0047640Y0030175D01*
X0047535Y0030233D01*
X0047431Y0030293D01*
X0047329Y0030357D01*
X0047230Y0030424D01*
X0047132Y0030495D01*
X0047037Y0030568D01*
X0046944Y0030645D01*
X0046854Y0030724D01*
X0046766Y0030806D01*
X0046681Y0030891D01*
X0046599Y0030979D01*
X0046520Y0031069D01*
X0046443Y0031162D01*
X0046370Y0031257D01*
X0046299Y0031355D01*
X0046232Y0031454D01*
X0046168Y0031556D01*
X0046108Y0031660D01*
X0046050Y0031765D01*
X0045996Y0031873D01*
X0045946Y0031982D01*
X0045899Y0032093D01*
X0045856Y0032205D01*
X0045816Y0032318D01*
X0045780Y0032433D01*
X0045748Y0032549D01*
X0045719Y0032666D01*
X0045694Y0032783D01*
X0045673Y0032902D01*
X0045656Y0033020D01*
X0045642Y0033140D01*
X0045633Y0033260D01*
X0045627Y0033380D01*
X0045625Y0033500D01*
X0045625Y0228500D01*
X0045627Y0228620D01*
X0045633Y0228740D01*
X0045642Y0228860D01*
X0045656Y0228980D01*
X0045673Y0229098D01*
X0045694Y0229217D01*
X0045719Y0229334D01*
X0045748Y0229451D01*
X0045780Y0229567D01*
X0045816Y0229682D01*
X0045856Y0229795D01*
X0045899Y0229907D01*
X0045946Y0230018D01*
X0045996Y0230127D01*
X0046050Y0230235D01*
X0046108Y0230340D01*
X0046168Y0230444D01*
X0046232Y0230546D01*
X0046299Y0230645D01*
X0046370Y0230743D01*
X0046443Y0230838D01*
X0046520Y0230931D01*
X0046599Y0231021D01*
X0046681Y0231109D01*
X0046766Y0231194D01*
X0046854Y0231276D01*
X0046944Y0231355D01*
X0047037Y0231432D01*
X0047132Y0231505D01*
X0047230Y0231576D01*
X0047329Y0231643D01*
X0047431Y0231707D01*
X0047535Y0231767D01*
X0047640Y0231825D01*
X0047748Y0231879D01*
X0047857Y0231929D01*
X0047968Y0231976D01*
X0048080Y0232019D01*
X0048193Y0232059D01*
X0048308Y0232095D01*
X0048424Y0232127D01*
X0048541Y0232156D01*
X0048658Y0232181D01*
X0048777Y0232202D01*
X0048895Y0232219D01*
X0049015Y0232233D01*
X0049135Y0232242D01*
X0049255Y0232248D01*
X0049375Y0232250D01*
X0054375Y0232250D01*
X0061875Y0232250D01*
X0061875Y0241000D01*
X0045625Y0241000D01*
X0045625Y0261000D01*
X0148125Y0261000D01*
X0148125Y0241000D01*
X0131875Y0241000D01*
X0131875Y0232250D01*
X0139375Y0232250D01*
X0144375Y0232250D01*
X0144495Y0232248D01*
X0144615Y0232242D01*
X0144735Y0232233D01*
X0144855Y0232219D01*
X0144973Y0232202D01*
X0145092Y0232181D01*
X0145209Y0232156D01*
X0145326Y0232127D01*
X0145442Y0232095D01*
X0145557Y0232059D01*
X0145670Y0232019D01*
X0145782Y0231976D01*
X0145893Y0231929D01*
X0146002Y0231879D01*
X0146110Y0231825D01*
X0146215Y0231767D01*
X0146319Y0231707D01*
X0146421Y0231643D01*
X0146520Y0231576D01*
X0146618Y0231505D01*
X0146713Y0231432D01*
X0146806Y0231355D01*
X0146896Y0231276D01*
X0146984Y0231194D01*
X0147069Y0231109D01*
X0147151Y0231021D01*
X0147230Y0230931D01*
X0147307Y0230838D01*
X0147380Y0230743D01*
X0147451Y0230645D01*
X0147518Y0230546D01*
X0147582Y0230444D01*
X0147642Y0230340D01*
X0147700Y0230235D01*
X0147754Y0230127D01*
X0147804Y0230018D01*
X0147851Y0229907D01*
X0147894Y0229795D01*
X0147934Y0229682D01*
X0147970Y0229567D01*
X0148002Y0229451D01*
X0148031Y0229334D01*
X0148056Y0229217D01*
X0148077Y0229098D01*
X0148094Y0228980D01*
X0148108Y0228860D01*
X0148117Y0228740D01*
X0148123Y0228620D01*
X0148125Y0228500D01*
X0148125Y0033500D01*
X0148123Y0033380D01*
X0148117Y0033260D01*
X0148108Y0033140D01*
X0148094Y0033020D01*
X0148077Y0032902D01*
X0148056Y0032783D01*
X0148031Y0032666D01*
X0148002Y0032549D01*
X0147970Y0032433D01*
X0147934Y0032318D01*
X0147894Y0032205D01*
X0147851Y0032093D01*
X0147804Y0031982D01*
X0147754Y0031873D01*
X0147700Y0031765D01*
X0147642Y0031660D01*
X0147582Y0031556D01*
X0147518Y0031454D01*
X0147451Y0031355D01*
X0147380Y0031257D01*
X0147307Y0031162D01*
X0147230Y0031069D01*
X0147151Y0030979D01*
X0147069Y0030891D01*
X0146984Y0030806D01*
X0146896Y0030724D01*
X0146806Y0030645D01*
X0146713Y0030568D01*
X0146618Y0030495D01*
X0146520Y0030424D01*
X0146421Y0030357D01*
X0146319Y0030293D01*
X0146215Y0030233D01*
X0146110Y0030175D01*
X0146002Y0030121D01*
X0145893Y0030071D01*
X0145782Y0030024D01*
X0145670Y0029981D01*
X0145557Y0029941D01*
X0145442Y0029905D01*
X0145326Y0029873D01*
X0145209Y0029844D01*
X0145092Y0029819D01*
X0144973Y0029798D01*
X0144855Y0029781D01*
X0144735Y0029767D01*
X0144615Y0029758D01*
X0144495Y0029752D01*
X0144375Y0029750D01*
X0131875Y0029750D01*
X0131875Y0021000D01*
X0148125Y0021000D01*
X0148125Y0001000D01*
X0045625Y0001000D01*
X0053076Y0011000D02*
X0053078Y0011158D01*
X0053084Y0011316D01*
X0053094Y0011474D01*
X0053108Y0011632D01*
X0053126Y0011789D01*
X0053147Y0011946D01*
X0053173Y0012102D01*
X0053203Y0012258D01*
X0053236Y0012413D01*
X0053274Y0012566D01*
X0053315Y0012719D01*
X0053360Y0012871D01*
X0053409Y0013022D01*
X0053462Y0013171D01*
X0053518Y0013319D01*
X0053578Y0013465D01*
X0053642Y0013610D01*
X0053710Y0013753D01*
X0053781Y0013895D01*
X0053855Y0014035D01*
X0053933Y0014172D01*
X0054015Y0014308D01*
X0054099Y0014442D01*
X0054188Y0014573D01*
X0054279Y0014702D01*
X0054374Y0014829D01*
X0054471Y0014954D01*
X0054572Y0015076D01*
X0054676Y0015195D01*
X0054783Y0015312D01*
X0054893Y0015426D01*
X0055006Y0015537D01*
X0055121Y0015646D01*
X0055239Y0015751D01*
X0055360Y0015853D01*
X0055483Y0015953D01*
X0055609Y0016049D01*
X0055737Y0016142D01*
X0055867Y0016232D01*
X0056000Y0016318D01*
X0056135Y0016402D01*
X0056271Y0016481D01*
X0056410Y0016558D01*
X0056551Y0016630D01*
X0056693Y0016700D01*
X0056837Y0016765D01*
X0056983Y0016827D01*
X0057130Y0016885D01*
X0057279Y0016940D01*
X0057429Y0016991D01*
X0057580Y0017038D01*
X0057732Y0017081D01*
X0057885Y0017120D01*
X0058040Y0017156D01*
X0058195Y0017187D01*
X0058351Y0017215D01*
X0058507Y0017239D01*
X0058664Y0017259D01*
X0058822Y0017275D01*
X0058979Y0017287D01*
X0059138Y0017295D01*
X0059296Y0017299D01*
X0059454Y0017299D01*
X0059612Y0017295D01*
X0059771Y0017287D01*
X0059928Y0017275D01*
X0060086Y0017259D01*
X0060243Y0017239D01*
X0060399Y0017215D01*
X0060555Y0017187D01*
X0060710Y0017156D01*
X0060865Y0017120D01*
X0061018Y0017081D01*
X0061170Y0017038D01*
X0061321Y0016991D01*
X0061471Y0016940D01*
X0061620Y0016885D01*
X0061767Y0016827D01*
X0061913Y0016765D01*
X0062057Y0016700D01*
X0062199Y0016630D01*
X0062340Y0016558D01*
X0062479Y0016481D01*
X0062615Y0016402D01*
X0062750Y0016318D01*
X0062883Y0016232D01*
X0063013Y0016142D01*
X0063141Y0016049D01*
X0063267Y0015953D01*
X0063390Y0015853D01*
X0063511Y0015751D01*
X0063629Y0015646D01*
X0063744Y0015537D01*
X0063857Y0015426D01*
X0063967Y0015312D01*
X0064074Y0015195D01*
X0064178Y0015076D01*
X0064279Y0014954D01*
X0064376Y0014829D01*
X0064471Y0014702D01*
X0064562Y0014573D01*
X0064651Y0014442D01*
X0064735Y0014308D01*
X0064817Y0014172D01*
X0064895Y0014035D01*
X0064969Y0013895D01*
X0065040Y0013753D01*
X0065108Y0013610D01*
X0065172Y0013465D01*
X0065232Y0013319D01*
X0065288Y0013171D01*
X0065341Y0013022D01*
X0065390Y0012871D01*
X0065435Y0012719D01*
X0065476Y0012566D01*
X0065514Y0012413D01*
X0065547Y0012258D01*
X0065577Y0012102D01*
X0065603Y0011946D01*
X0065624Y0011789D01*
X0065642Y0011632D01*
X0065656Y0011474D01*
X0065666Y0011316D01*
X0065672Y0011158D01*
X0065674Y0011000D01*
X0065672Y0010842D01*
X0065666Y0010684D01*
X0065656Y0010526D01*
X0065642Y0010368D01*
X0065624Y0010211D01*
X0065603Y0010054D01*
X0065577Y0009898D01*
X0065547Y0009742D01*
X0065514Y0009587D01*
X0065476Y0009434D01*
X0065435Y0009281D01*
X0065390Y0009129D01*
X0065341Y0008978D01*
X0065288Y0008829D01*
X0065232Y0008681D01*
X0065172Y0008535D01*
X0065108Y0008390D01*
X0065040Y0008247D01*
X0064969Y0008105D01*
X0064895Y0007965D01*
X0064817Y0007828D01*
X0064735Y0007692D01*
X0064651Y0007558D01*
X0064562Y0007427D01*
X0064471Y0007298D01*
X0064376Y0007171D01*
X0064279Y0007046D01*
X0064178Y0006924D01*
X0064074Y0006805D01*
X0063967Y0006688D01*
X0063857Y0006574D01*
X0063744Y0006463D01*
X0063629Y0006354D01*
X0063511Y0006249D01*
X0063390Y0006147D01*
X0063267Y0006047D01*
X0063141Y0005951D01*
X0063013Y0005858D01*
X0062883Y0005768D01*
X0062750Y0005682D01*
X0062615Y0005598D01*
X0062479Y0005519D01*
X0062340Y0005442D01*
X0062199Y0005370D01*
X0062057Y0005300D01*
X0061913Y0005235D01*
X0061767Y0005173D01*
X0061620Y0005115D01*
X0061471Y0005060D01*
X0061321Y0005009D01*
X0061170Y0004962D01*
X0061018Y0004919D01*
X0060865Y0004880D01*
X0060710Y0004844D01*
X0060555Y0004813D01*
X0060399Y0004785D01*
X0060243Y0004761D01*
X0060086Y0004741D01*
X0059928Y0004725D01*
X0059771Y0004713D01*
X0059612Y0004705D01*
X0059454Y0004701D01*
X0059296Y0004701D01*
X0059138Y0004705D01*
X0058979Y0004713D01*
X0058822Y0004725D01*
X0058664Y0004741D01*
X0058507Y0004761D01*
X0058351Y0004785D01*
X0058195Y0004813D01*
X0058040Y0004844D01*
X0057885Y0004880D01*
X0057732Y0004919D01*
X0057580Y0004962D01*
X0057429Y0005009D01*
X0057279Y0005060D01*
X0057130Y0005115D01*
X0056983Y0005173D01*
X0056837Y0005235D01*
X0056693Y0005300D01*
X0056551Y0005370D01*
X0056410Y0005442D01*
X0056271Y0005519D01*
X0056135Y0005598D01*
X0056000Y0005682D01*
X0055867Y0005768D01*
X0055737Y0005858D01*
X0055609Y0005951D01*
X0055483Y0006047D01*
X0055360Y0006147D01*
X0055239Y0006249D01*
X0055121Y0006354D01*
X0055006Y0006463D01*
X0054893Y0006574D01*
X0054783Y0006688D01*
X0054676Y0006805D01*
X0054572Y0006924D01*
X0054471Y0007046D01*
X0054374Y0007171D01*
X0054279Y0007298D01*
X0054188Y0007427D01*
X0054099Y0007558D01*
X0054015Y0007692D01*
X0053933Y0007828D01*
X0053855Y0007965D01*
X0053781Y0008105D01*
X0053710Y0008247D01*
X0053642Y0008390D01*
X0053578Y0008535D01*
X0053518Y0008681D01*
X0053462Y0008829D01*
X0053409Y0008978D01*
X0053360Y0009129D01*
X0053315Y0009281D01*
X0053274Y0009434D01*
X0053236Y0009587D01*
X0053203Y0009742D01*
X0053173Y0009898D01*
X0053147Y0010054D01*
X0053126Y0010211D01*
X0053108Y0010368D01*
X0053094Y0010526D01*
X0053084Y0010684D01*
X0053078Y0010842D01*
X0053076Y0011000D01*
X0062766Y0022250D02*
X0062768Y0022312D01*
X0062774Y0022375D01*
X0062784Y0022436D01*
X0062798Y0022497D01*
X0062815Y0022557D01*
X0062836Y0022616D01*
X0062862Y0022673D01*
X0062890Y0022728D01*
X0062922Y0022782D01*
X0062958Y0022833D01*
X0062996Y0022883D01*
X0063038Y0022929D01*
X0063082Y0022973D01*
X0063130Y0023014D01*
X0063179Y0023052D01*
X0063231Y0023086D01*
X0063285Y0023117D01*
X0063341Y0023145D01*
X0063399Y0023169D01*
X0063458Y0023190D01*
X0063518Y0023206D01*
X0063579Y0023219D01*
X0063641Y0023228D01*
X0063703Y0023233D01*
X0063766Y0023234D01*
X0063828Y0023231D01*
X0063890Y0023224D01*
X0063952Y0023213D01*
X0064012Y0023198D01*
X0064072Y0023180D01*
X0064130Y0023158D01*
X0064187Y0023132D01*
X0064242Y0023102D01*
X0064295Y0023069D01*
X0064346Y0023033D01*
X0064394Y0022994D01*
X0064440Y0022951D01*
X0064483Y0022906D01*
X0064523Y0022858D01*
X0064560Y0022808D01*
X0064594Y0022755D01*
X0064625Y0022701D01*
X0064651Y0022645D01*
X0064675Y0022587D01*
X0064694Y0022527D01*
X0064710Y0022467D01*
X0064722Y0022405D01*
X0064730Y0022344D01*
X0064734Y0022281D01*
X0064734Y0022219D01*
X0064730Y0022156D01*
X0064722Y0022095D01*
X0064710Y0022033D01*
X0064694Y0021973D01*
X0064675Y0021913D01*
X0064651Y0021855D01*
X0064625Y0021799D01*
X0064594Y0021745D01*
X0064560Y0021692D01*
X0064523Y0021642D01*
X0064483Y0021594D01*
X0064440Y0021549D01*
X0064394Y0021506D01*
X0064346Y0021467D01*
X0064295Y0021431D01*
X0064242Y0021398D01*
X0064187Y0021368D01*
X0064130Y0021342D01*
X0064072Y0021320D01*
X0064012Y0021302D01*
X0063952Y0021287D01*
X0063890Y0021276D01*
X0063828Y0021269D01*
X0063766Y0021266D01*
X0063703Y0021267D01*
X0063641Y0021272D01*
X0063579Y0021281D01*
X0063518Y0021294D01*
X0063458Y0021310D01*
X0063399Y0021331D01*
X0063341Y0021355D01*
X0063285Y0021383D01*
X0063231Y0021414D01*
X0063179Y0021448D01*
X0063130Y0021486D01*
X0063082Y0021527D01*
X0063038Y0021571D01*
X0062996Y0021617D01*
X0062958Y0021667D01*
X0062922Y0021718D01*
X0062890Y0021772D01*
X0062862Y0021827D01*
X0062836Y0021884D01*
X0062815Y0021943D01*
X0062798Y0022003D01*
X0062784Y0022064D01*
X0062774Y0022125D01*
X0062768Y0022188D01*
X0062766Y0022250D01*
X0062766Y0025375D02*
X0062768Y0025437D01*
X0062774Y0025500D01*
X0062784Y0025561D01*
X0062798Y0025622D01*
X0062815Y0025682D01*
X0062836Y0025741D01*
X0062862Y0025798D01*
X0062890Y0025853D01*
X0062922Y0025907D01*
X0062958Y0025958D01*
X0062996Y0026008D01*
X0063038Y0026054D01*
X0063082Y0026098D01*
X0063130Y0026139D01*
X0063179Y0026177D01*
X0063231Y0026211D01*
X0063285Y0026242D01*
X0063341Y0026270D01*
X0063399Y0026294D01*
X0063458Y0026315D01*
X0063518Y0026331D01*
X0063579Y0026344D01*
X0063641Y0026353D01*
X0063703Y0026358D01*
X0063766Y0026359D01*
X0063828Y0026356D01*
X0063890Y0026349D01*
X0063952Y0026338D01*
X0064012Y0026323D01*
X0064072Y0026305D01*
X0064130Y0026283D01*
X0064187Y0026257D01*
X0064242Y0026227D01*
X0064295Y0026194D01*
X0064346Y0026158D01*
X0064394Y0026119D01*
X0064440Y0026076D01*
X0064483Y0026031D01*
X0064523Y0025983D01*
X0064560Y0025933D01*
X0064594Y0025880D01*
X0064625Y0025826D01*
X0064651Y0025770D01*
X0064675Y0025712D01*
X0064694Y0025652D01*
X0064710Y0025592D01*
X0064722Y0025530D01*
X0064730Y0025469D01*
X0064734Y0025406D01*
X0064734Y0025344D01*
X0064730Y0025281D01*
X0064722Y0025220D01*
X0064710Y0025158D01*
X0064694Y0025098D01*
X0064675Y0025038D01*
X0064651Y0024980D01*
X0064625Y0024924D01*
X0064594Y0024870D01*
X0064560Y0024817D01*
X0064523Y0024767D01*
X0064483Y0024719D01*
X0064440Y0024674D01*
X0064394Y0024631D01*
X0064346Y0024592D01*
X0064295Y0024556D01*
X0064242Y0024523D01*
X0064187Y0024493D01*
X0064130Y0024467D01*
X0064072Y0024445D01*
X0064012Y0024427D01*
X0063952Y0024412D01*
X0063890Y0024401D01*
X0063828Y0024394D01*
X0063766Y0024391D01*
X0063703Y0024392D01*
X0063641Y0024397D01*
X0063579Y0024406D01*
X0063518Y0024419D01*
X0063458Y0024435D01*
X0063399Y0024456D01*
X0063341Y0024480D01*
X0063285Y0024508D01*
X0063231Y0024539D01*
X0063179Y0024573D01*
X0063130Y0024611D01*
X0063082Y0024652D01*
X0063038Y0024696D01*
X0062996Y0024742D01*
X0062958Y0024792D01*
X0062922Y0024843D01*
X0062890Y0024897D01*
X0062862Y0024952D01*
X0062836Y0025009D01*
X0062815Y0025068D01*
X0062798Y0025128D01*
X0062784Y0025189D01*
X0062774Y0025250D01*
X0062768Y0025313D01*
X0062766Y0025375D01*
X0062766Y0028500D02*
X0062768Y0028562D01*
X0062774Y0028625D01*
X0062784Y0028686D01*
X0062798Y0028747D01*
X0062815Y0028807D01*
X0062836Y0028866D01*
X0062862Y0028923D01*
X0062890Y0028978D01*
X0062922Y0029032D01*
X0062958Y0029083D01*
X0062996Y0029133D01*
X0063038Y0029179D01*
X0063082Y0029223D01*
X0063130Y0029264D01*
X0063179Y0029302D01*
X0063231Y0029336D01*
X0063285Y0029367D01*
X0063341Y0029395D01*
X0063399Y0029419D01*
X0063458Y0029440D01*
X0063518Y0029456D01*
X0063579Y0029469D01*
X0063641Y0029478D01*
X0063703Y0029483D01*
X0063766Y0029484D01*
X0063828Y0029481D01*
X0063890Y0029474D01*
X0063952Y0029463D01*
X0064012Y0029448D01*
X0064072Y0029430D01*
X0064130Y0029408D01*
X0064187Y0029382D01*
X0064242Y0029352D01*
X0064295Y0029319D01*
X0064346Y0029283D01*
X0064394Y0029244D01*
X0064440Y0029201D01*
X0064483Y0029156D01*
X0064523Y0029108D01*
X0064560Y0029058D01*
X0064594Y0029005D01*
X0064625Y0028951D01*
X0064651Y0028895D01*
X0064675Y0028837D01*
X0064694Y0028777D01*
X0064710Y0028717D01*
X0064722Y0028655D01*
X0064730Y0028594D01*
X0064734Y0028531D01*
X0064734Y0028469D01*
X0064730Y0028406D01*
X0064722Y0028345D01*
X0064710Y0028283D01*
X0064694Y0028223D01*
X0064675Y0028163D01*
X0064651Y0028105D01*
X0064625Y0028049D01*
X0064594Y0027995D01*
X0064560Y0027942D01*
X0064523Y0027892D01*
X0064483Y0027844D01*
X0064440Y0027799D01*
X0064394Y0027756D01*
X0064346Y0027717D01*
X0064295Y0027681D01*
X0064242Y0027648D01*
X0064187Y0027618D01*
X0064130Y0027592D01*
X0064072Y0027570D01*
X0064012Y0027552D01*
X0063952Y0027537D01*
X0063890Y0027526D01*
X0063828Y0027519D01*
X0063766Y0027516D01*
X0063703Y0027517D01*
X0063641Y0027522D01*
X0063579Y0027531D01*
X0063518Y0027544D01*
X0063458Y0027560D01*
X0063399Y0027581D01*
X0063341Y0027605D01*
X0063285Y0027633D01*
X0063231Y0027664D01*
X0063179Y0027698D01*
X0063130Y0027736D01*
X0063082Y0027777D01*
X0063038Y0027821D01*
X0062996Y0027867D01*
X0062958Y0027917D01*
X0062922Y0027968D01*
X0062890Y0028022D01*
X0062862Y0028077D01*
X0062836Y0028134D01*
X0062815Y0028193D01*
X0062798Y0028253D01*
X0062784Y0028314D01*
X0062774Y0028375D01*
X0062768Y0028438D01*
X0062766Y0028500D01*
X0065891Y0028500D02*
X0065893Y0028562D01*
X0065899Y0028625D01*
X0065909Y0028686D01*
X0065923Y0028747D01*
X0065940Y0028807D01*
X0065961Y0028866D01*
X0065987Y0028923D01*
X0066015Y0028978D01*
X0066047Y0029032D01*
X0066083Y0029083D01*
X0066121Y0029133D01*
X0066163Y0029179D01*
X0066207Y0029223D01*
X0066255Y0029264D01*
X0066304Y0029302D01*
X0066356Y0029336D01*
X0066410Y0029367D01*
X0066466Y0029395D01*
X0066524Y0029419D01*
X0066583Y0029440D01*
X0066643Y0029456D01*
X0066704Y0029469D01*
X0066766Y0029478D01*
X0066828Y0029483D01*
X0066891Y0029484D01*
X0066953Y0029481D01*
X0067015Y0029474D01*
X0067077Y0029463D01*
X0067137Y0029448D01*
X0067197Y0029430D01*
X0067255Y0029408D01*
X0067312Y0029382D01*
X0067367Y0029352D01*
X0067420Y0029319D01*
X0067471Y0029283D01*
X0067519Y0029244D01*
X0067565Y0029201D01*
X0067608Y0029156D01*
X0067648Y0029108D01*
X0067685Y0029058D01*
X0067719Y0029005D01*
X0067750Y0028951D01*
X0067776Y0028895D01*
X0067800Y0028837D01*
X0067819Y0028777D01*
X0067835Y0028717D01*
X0067847Y0028655D01*
X0067855Y0028594D01*
X0067859Y0028531D01*
X0067859Y0028469D01*
X0067855Y0028406D01*
X0067847Y0028345D01*
X0067835Y0028283D01*
X0067819Y0028223D01*
X0067800Y0028163D01*
X0067776Y0028105D01*
X0067750Y0028049D01*
X0067719Y0027995D01*
X0067685Y0027942D01*
X0067648Y0027892D01*
X0067608Y0027844D01*
X0067565Y0027799D01*
X0067519Y0027756D01*
X0067471Y0027717D01*
X0067420Y0027681D01*
X0067367Y0027648D01*
X0067312Y0027618D01*
X0067255Y0027592D01*
X0067197Y0027570D01*
X0067137Y0027552D01*
X0067077Y0027537D01*
X0067015Y0027526D01*
X0066953Y0027519D01*
X0066891Y0027516D01*
X0066828Y0027517D01*
X0066766Y0027522D01*
X0066704Y0027531D01*
X0066643Y0027544D01*
X0066583Y0027560D01*
X0066524Y0027581D01*
X0066466Y0027605D01*
X0066410Y0027633D01*
X0066356Y0027664D01*
X0066304Y0027698D01*
X0066255Y0027736D01*
X0066207Y0027777D01*
X0066163Y0027821D01*
X0066121Y0027867D01*
X0066083Y0027917D01*
X0066047Y0027968D01*
X0066015Y0028022D01*
X0065987Y0028077D01*
X0065961Y0028134D01*
X0065940Y0028193D01*
X0065923Y0028253D01*
X0065909Y0028314D01*
X0065899Y0028375D01*
X0065893Y0028438D01*
X0065891Y0028500D01*
X0065891Y0025375D02*
X0065893Y0025437D01*
X0065899Y0025500D01*
X0065909Y0025561D01*
X0065923Y0025622D01*
X0065940Y0025682D01*
X0065961Y0025741D01*
X0065987Y0025798D01*
X0066015Y0025853D01*
X0066047Y0025907D01*
X0066083Y0025958D01*
X0066121Y0026008D01*
X0066163Y0026054D01*
X0066207Y0026098D01*
X0066255Y0026139D01*
X0066304Y0026177D01*
X0066356Y0026211D01*
X0066410Y0026242D01*
X0066466Y0026270D01*
X0066524Y0026294D01*
X0066583Y0026315D01*
X0066643Y0026331D01*
X0066704Y0026344D01*
X0066766Y0026353D01*
X0066828Y0026358D01*
X0066891Y0026359D01*
X0066953Y0026356D01*
X0067015Y0026349D01*
X0067077Y0026338D01*
X0067137Y0026323D01*
X0067197Y0026305D01*
X0067255Y0026283D01*
X0067312Y0026257D01*
X0067367Y0026227D01*
X0067420Y0026194D01*
X0067471Y0026158D01*
X0067519Y0026119D01*
X0067565Y0026076D01*
X0067608Y0026031D01*
X0067648Y0025983D01*
X0067685Y0025933D01*
X0067719Y0025880D01*
X0067750Y0025826D01*
X0067776Y0025770D01*
X0067800Y0025712D01*
X0067819Y0025652D01*
X0067835Y0025592D01*
X0067847Y0025530D01*
X0067855Y0025469D01*
X0067859Y0025406D01*
X0067859Y0025344D01*
X0067855Y0025281D01*
X0067847Y0025220D01*
X0067835Y0025158D01*
X0067819Y0025098D01*
X0067800Y0025038D01*
X0067776Y0024980D01*
X0067750Y0024924D01*
X0067719Y0024870D01*
X0067685Y0024817D01*
X0067648Y0024767D01*
X0067608Y0024719D01*
X0067565Y0024674D01*
X0067519Y0024631D01*
X0067471Y0024592D01*
X0067420Y0024556D01*
X0067367Y0024523D01*
X0067312Y0024493D01*
X0067255Y0024467D01*
X0067197Y0024445D01*
X0067137Y0024427D01*
X0067077Y0024412D01*
X0067015Y0024401D01*
X0066953Y0024394D01*
X0066891Y0024391D01*
X0066828Y0024392D01*
X0066766Y0024397D01*
X0066704Y0024406D01*
X0066643Y0024419D01*
X0066583Y0024435D01*
X0066524Y0024456D01*
X0066466Y0024480D01*
X0066410Y0024508D01*
X0066356Y0024539D01*
X0066304Y0024573D01*
X0066255Y0024611D01*
X0066207Y0024652D01*
X0066163Y0024696D01*
X0066121Y0024742D01*
X0066083Y0024792D01*
X0066047Y0024843D01*
X0066015Y0024897D01*
X0065987Y0024952D01*
X0065961Y0025009D01*
X0065940Y0025068D01*
X0065923Y0025128D01*
X0065909Y0025189D01*
X0065899Y0025250D01*
X0065893Y0025313D01*
X0065891Y0025375D01*
X0065891Y0022250D02*
X0065893Y0022312D01*
X0065899Y0022375D01*
X0065909Y0022436D01*
X0065923Y0022497D01*
X0065940Y0022557D01*
X0065961Y0022616D01*
X0065987Y0022673D01*
X0066015Y0022728D01*
X0066047Y0022782D01*
X0066083Y0022833D01*
X0066121Y0022883D01*
X0066163Y0022929D01*
X0066207Y0022973D01*
X0066255Y0023014D01*
X0066304Y0023052D01*
X0066356Y0023086D01*
X0066410Y0023117D01*
X0066466Y0023145D01*
X0066524Y0023169D01*
X0066583Y0023190D01*
X0066643Y0023206D01*
X0066704Y0023219D01*
X0066766Y0023228D01*
X0066828Y0023233D01*
X0066891Y0023234D01*
X0066953Y0023231D01*
X0067015Y0023224D01*
X0067077Y0023213D01*
X0067137Y0023198D01*
X0067197Y0023180D01*
X0067255Y0023158D01*
X0067312Y0023132D01*
X0067367Y0023102D01*
X0067420Y0023069D01*
X0067471Y0023033D01*
X0067519Y0022994D01*
X0067565Y0022951D01*
X0067608Y0022906D01*
X0067648Y0022858D01*
X0067685Y0022808D01*
X0067719Y0022755D01*
X0067750Y0022701D01*
X0067776Y0022645D01*
X0067800Y0022587D01*
X0067819Y0022527D01*
X0067835Y0022467D01*
X0067847Y0022405D01*
X0067855Y0022344D01*
X0067859Y0022281D01*
X0067859Y0022219D01*
X0067855Y0022156D01*
X0067847Y0022095D01*
X0067835Y0022033D01*
X0067819Y0021973D01*
X0067800Y0021913D01*
X0067776Y0021855D01*
X0067750Y0021799D01*
X0067719Y0021745D01*
X0067685Y0021692D01*
X0067648Y0021642D01*
X0067608Y0021594D01*
X0067565Y0021549D01*
X0067519Y0021506D01*
X0067471Y0021467D01*
X0067420Y0021431D01*
X0067367Y0021398D01*
X0067312Y0021368D01*
X0067255Y0021342D01*
X0067197Y0021320D01*
X0067137Y0021302D01*
X0067077Y0021287D01*
X0067015Y0021276D01*
X0066953Y0021269D01*
X0066891Y0021266D01*
X0066828Y0021267D01*
X0066766Y0021272D01*
X0066704Y0021281D01*
X0066643Y0021294D01*
X0066583Y0021310D01*
X0066524Y0021331D01*
X0066466Y0021355D01*
X0066410Y0021383D01*
X0066356Y0021414D01*
X0066304Y0021448D01*
X0066255Y0021486D01*
X0066207Y0021527D01*
X0066163Y0021571D01*
X0066121Y0021617D01*
X0066083Y0021667D01*
X0066047Y0021718D01*
X0066015Y0021772D01*
X0065987Y0021827D01*
X0065961Y0021884D01*
X0065940Y0021943D01*
X0065923Y0022003D01*
X0065909Y0022064D01*
X0065899Y0022125D01*
X0065893Y0022188D01*
X0065891Y0022250D01*
X0069016Y0022250D02*
X0069018Y0022312D01*
X0069024Y0022375D01*
X0069034Y0022436D01*
X0069048Y0022497D01*
X0069065Y0022557D01*
X0069086Y0022616D01*
X0069112Y0022673D01*
X0069140Y0022728D01*
X0069172Y0022782D01*
X0069208Y0022833D01*
X0069246Y0022883D01*
X0069288Y0022929D01*
X0069332Y0022973D01*
X0069380Y0023014D01*
X0069429Y0023052D01*
X0069481Y0023086D01*
X0069535Y0023117D01*
X0069591Y0023145D01*
X0069649Y0023169D01*
X0069708Y0023190D01*
X0069768Y0023206D01*
X0069829Y0023219D01*
X0069891Y0023228D01*
X0069953Y0023233D01*
X0070016Y0023234D01*
X0070078Y0023231D01*
X0070140Y0023224D01*
X0070202Y0023213D01*
X0070262Y0023198D01*
X0070322Y0023180D01*
X0070380Y0023158D01*
X0070437Y0023132D01*
X0070492Y0023102D01*
X0070545Y0023069D01*
X0070596Y0023033D01*
X0070644Y0022994D01*
X0070690Y0022951D01*
X0070733Y0022906D01*
X0070773Y0022858D01*
X0070810Y0022808D01*
X0070844Y0022755D01*
X0070875Y0022701D01*
X0070901Y0022645D01*
X0070925Y0022587D01*
X0070944Y0022527D01*
X0070960Y0022467D01*
X0070972Y0022405D01*
X0070980Y0022344D01*
X0070984Y0022281D01*
X0070984Y0022219D01*
X0070980Y0022156D01*
X0070972Y0022095D01*
X0070960Y0022033D01*
X0070944Y0021973D01*
X0070925Y0021913D01*
X0070901Y0021855D01*
X0070875Y0021799D01*
X0070844Y0021745D01*
X0070810Y0021692D01*
X0070773Y0021642D01*
X0070733Y0021594D01*
X0070690Y0021549D01*
X0070644Y0021506D01*
X0070596Y0021467D01*
X0070545Y0021431D01*
X0070492Y0021398D01*
X0070437Y0021368D01*
X0070380Y0021342D01*
X0070322Y0021320D01*
X0070262Y0021302D01*
X0070202Y0021287D01*
X0070140Y0021276D01*
X0070078Y0021269D01*
X0070016Y0021266D01*
X0069953Y0021267D01*
X0069891Y0021272D01*
X0069829Y0021281D01*
X0069768Y0021294D01*
X0069708Y0021310D01*
X0069649Y0021331D01*
X0069591Y0021355D01*
X0069535Y0021383D01*
X0069481Y0021414D01*
X0069429Y0021448D01*
X0069380Y0021486D01*
X0069332Y0021527D01*
X0069288Y0021571D01*
X0069246Y0021617D01*
X0069208Y0021667D01*
X0069172Y0021718D01*
X0069140Y0021772D01*
X0069112Y0021827D01*
X0069086Y0021884D01*
X0069065Y0021943D01*
X0069048Y0022003D01*
X0069034Y0022064D01*
X0069024Y0022125D01*
X0069018Y0022188D01*
X0069016Y0022250D01*
X0069016Y0025375D02*
X0069018Y0025437D01*
X0069024Y0025500D01*
X0069034Y0025561D01*
X0069048Y0025622D01*
X0069065Y0025682D01*
X0069086Y0025741D01*
X0069112Y0025798D01*
X0069140Y0025853D01*
X0069172Y0025907D01*
X0069208Y0025958D01*
X0069246Y0026008D01*
X0069288Y0026054D01*
X0069332Y0026098D01*
X0069380Y0026139D01*
X0069429Y0026177D01*
X0069481Y0026211D01*
X0069535Y0026242D01*
X0069591Y0026270D01*
X0069649Y0026294D01*
X0069708Y0026315D01*
X0069768Y0026331D01*
X0069829Y0026344D01*
X0069891Y0026353D01*
X0069953Y0026358D01*
X0070016Y0026359D01*
X0070078Y0026356D01*
X0070140Y0026349D01*
X0070202Y0026338D01*
X0070262Y0026323D01*
X0070322Y0026305D01*
X0070380Y0026283D01*
X0070437Y0026257D01*
X0070492Y0026227D01*
X0070545Y0026194D01*
X0070596Y0026158D01*
X0070644Y0026119D01*
X0070690Y0026076D01*
X0070733Y0026031D01*
X0070773Y0025983D01*
X0070810Y0025933D01*
X0070844Y0025880D01*
X0070875Y0025826D01*
X0070901Y0025770D01*
X0070925Y0025712D01*
X0070944Y0025652D01*
X0070960Y0025592D01*
X0070972Y0025530D01*
X0070980Y0025469D01*
X0070984Y0025406D01*
X0070984Y0025344D01*
X0070980Y0025281D01*
X0070972Y0025220D01*
X0070960Y0025158D01*
X0070944Y0025098D01*
X0070925Y0025038D01*
X0070901Y0024980D01*
X0070875Y0024924D01*
X0070844Y0024870D01*
X0070810Y0024817D01*
X0070773Y0024767D01*
X0070733Y0024719D01*
X0070690Y0024674D01*
X0070644Y0024631D01*
X0070596Y0024592D01*
X0070545Y0024556D01*
X0070492Y0024523D01*
X0070437Y0024493D01*
X0070380Y0024467D01*
X0070322Y0024445D01*
X0070262Y0024427D01*
X0070202Y0024412D01*
X0070140Y0024401D01*
X0070078Y0024394D01*
X0070016Y0024391D01*
X0069953Y0024392D01*
X0069891Y0024397D01*
X0069829Y0024406D01*
X0069768Y0024419D01*
X0069708Y0024435D01*
X0069649Y0024456D01*
X0069591Y0024480D01*
X0069535Y0024508D01*
X0069481Y0024539D01*
X0069429Y0024573D01*
X0069380Y0024611D01*
X0069332Y0024652D01*
X0069288Y0024696D01*
X0069246Y0024742D01*
X0069208Y0024792D01*
X0069172Y0024843D01*
X0069140Y0024897D01*
X0069112Y0024952D01*
X0069086Y0025009D01*
X0069065Y0025068D01*
X0069048Y0025128D01*
X0069034Y0025189D01*
X0069024Y0025250D01*
X0069018Y0025313D01*
X0069016Y0025375D01*
X0069016Y0028500D02*
X0069018Y0028562D01*
X0069024Y0028625D01*
X0069034Y0028686D01*
X0069048Y0028747D01*
X0069065Y0028807D01*
X0069086Y0028866D01*
X0069112Y0028923D01*
X0069140Y0028978D01*
X0069172Y0029032D01*
X0069208Y0029083D01*
X0069246Y0029133D01*
X0069288Y0029179D01*
X0069332Y0029223D01*
X0069380Y0029264D01*
X0069429Y0029302D01*
X0069481Y0029336D01*
X0069535Y0029367D01*
X0069591Y0029395D01*
X0069649Y0029419D01*
X0069708Y0029440D01*
X0069768Y0029456D01*
X0069829Y0029469D01*
X0069891Y0029478D01*
X0069953Y0029483D01*
X0070016Y0029484D01*
X0070078Y0029481D01*
X0070140Y0029474D01*
X0070202Y0029463D01*
X0070262Y0029448D01*
X0070322Y0029430D01*
X0070380Y0029408D01*
X0070437Y0029382D01*
X0070492Y0029352D01*
X0070545Y0029319D01*
X0070596Y0029283D01*
X0070644Y0029244D01*
X0070690Y0029201D01*
X0070733Y0029156D01*
X0070773Y0029108D01*
X0070810Y0029058D01*
X0070844Y0029005D01*
X0070875Y0028951D01*
X0070901Y0028895D01*
X0070925Y0028837D01*
X0070944Y0028777D01*
X0070960Y0028717D01*
X0070972Y0028655D01*
X0070980Y0028594D01*
X0070984Y0028531D01*
X0070984Y0028469D01*
X0070980Y0028406D01*
X0070972Y0028345D01*
X0070960Y0028283D01*
X0070944Y0028223D01*
X0070925Y0028163D01*
X0070901Y0028105D01*
X0070875Y0028049D01*
X0070844Y0027995D01*
X0070810Y0027942D01*
X0070773Y0027892D01*
X0070733Y0027844D01*
X0070690Y0027799D01*
X0070644Y0027756D01*
X0070596Y0027717D01*
X0070545Y0027681D01*
X0070492Y0027648D01*
X0070437Y0027618D01*
X0070380Y0027592D01*
X0070322Y0027570D01*
X0070262Y0027552D01*
X0070202Y0027537D01*
X0070140Y0027526D01*
X0070078Y0027519D01*
X0070016Y0027516D01*
X0069953Y0027517D01*
X0069891Y0027522D01*
X0069829Y0027531D01*
X0069768Y0027544D01*
X0069708Y0027560D01*
X0069649Y0027581D01*
X0069591Y0027605D01*
X0069535Y0027633D01*
X0069481Y0027664D01*
X0069429Y0027698D01*
X0069380Y0027736D01*
X0069332Y0027777D01*
X0069288Y0027821D01*
X0069246Y0027867D01*
X0069208Y0027917D01*
X0069172Y0027968D01*
X0069140Y0028022D01*
X0069112Y0028077D01*
X0069086Y0028134D01*
X0069065Y0028193D01*
X0069048Y0028253D01*
X0069034Y0028314D01*
X0069024Y0028375D01*
X0069018Y0028438D01*
X0069016Y0028500D01*
X0071875Y0029750D02*
X0071875Y0021000D01*
X0121875Y0021000D01*
X0121875Y0029750D01*
X0071875Y0029750D01*
X0072904Y0054455D02*
X0072906Y0054570D01*
X0072912Y0054686D01*
X0072922Y0054801D01*
X0072936Y0054916D01*
X0072954Y0055030D01*
X0072976Y0055143D01*
X0073001Y0055256D01*
X0073031Y0055367D01*
X0073064Y0055478D01*
X0073101Y0055587D01*
X0073142Y0055695D01*
X0073187Y0055802D01*
X0073235Y0055907D01*
X0073287Y0056010D01*
X0073343Y0056111D01*
X0073402Y0056211D01*
X0073464Y0056308D01*
X0073530Y0056403D01*
X0073598Y0056496D01*
X0073670Y0056586D01*
X0073745Y0056674D01*
X0073824Y0056759D01*
X0073905Y0056841D01*
X0073988Y0056921D01*
X0074075Y0056997D01*
X0074164Y0057071D01*
X0074255Y0057141D01*
X0074349Y0057209D01*
X0074445Y0057273D01*
X0074544Y0057333D01*
X0074644Y0057390D01*
X0074746Y0057444D01*
X0074850Y0057494D01*
X0074956Y0057541D01*
X0075063Y0057584D01*
X0075172Y0057623D01*
X0075282Y0057658D01*
X0075393Y0057689D01*
X0075505Y0057717D01*
X0075618Y0057741D01*
X0075732Y0057761D01*
X0075847Y0057777D01*
X0075962Y0057789D01*
X0076077Y0057797D01*
X0076192Y0057801D01*
X0076308Y0057801D01*
X0076423Y0057797D01*
X0076538Y0057789D01*
X0076653Y0057777D01*
X0076768Y0057761D01*
X0076882Y0057741D01*
X0076995Y0057717D01*
X0077107Y0057689D01*
X0077218Y0057658D01*
X0077328Y0057623D01*
X0077437Y0057584D01*
X0077544Y0057541D01*
X0077650Y0057494D01*
X0077754Y0057444D01*
X0077856Y0057390D01*
X0077956Y0057333D01*
X0078055Y0057273D01*
X0078151Y0057209D01*
X0078245Y0057141D01*
X0078336Y0057071D01*
X0078425Y0056997D01*
X0078512Y0056921D01*
X0078595Y0056841D01*
X0078676Y0056759D01*
X0078755Y0056674D01*
X0078830Y0056586D01*
X0078902Y0056496D01*
X0078970Y0056403D01*
X0079036Y0056308D01*
X0079098Y0056211D01*
X0079157Y0056111D01*
X0079213Y0056010D01*
X0079265Y0055907D01*
X0079313Y0055802D01*
X0079358Y0055695D01*
X0079399Y0055587D01*
X0079436Y0055478D01*
X0079469Y0055367D01*
X0079499Y0055256D01*
X0079524Y0055143D01*
X0079546Y0055030D01*
X0079564Y0054916D01*
X0079578Y0054801D01*
X0079588Y0054686D01*
X0079594Y0054570D01*
X0079596Y0054455D01*
X0079594Y0054340D01*
X0079588Y0054224D01*
X0079578Y0054109D01*
X0079564Y0053994D01*
X0079546Y0053880D01*
X0079524Y0053767D01*
X0079499Y0053654D01*
X0079469Y0053543D01*
X0079436Y0053432D01*
X0079399Y0053323D01*
X0079358Y0053215D01*
X0079313Y0053108D01*
X0079265Y0053003D01*
X0079213Y0052900D01*
X0079157Y0052799D01*
X0079098Y0052699D01*
X0079036Y0052602D01*
X0078970Y0052507D01*
X0078902Y0052414D01*
X0078830Y0052324D01*
X0078755Y0052236D01*
X0078676Y0052151D01*
X0078595Y0052069D01*
X0078512Y0051989D01*
X0078425Y0051913D01*
X0078336Y0051839D01*
X0078245Y0051769D01*
X0078151Y0051701D01*
X0078055Y0051637D01*
X0077956Y0051577D01*
X0077856Y0051520D01*
X0077754Y0051466D01*
X0077650Y0051416D01*
X0077544Y0051369D01*
X0077437Y0051326D01*
X0077328Y0051287D01*
X0077218Y0051252D01*
X0077107Y0051221D01*
X0076995Y0051193D01*
X0076882Y0051169D01*
X0076768Y0051149D01*
X0076653Y0051133D01*
X0076538Y0051121D01*
X0076423Y0051113D01*
X0076308Y0051109D01*
X0076192Y0051109D01*
X0076077Y0051113D01*
X0075962Y0051121D01*
X0075847Y0051133D01*
X0075732Y0051149D01*
X0075618Y0051169D01*
X0075505Y0051193D01*
X0075393Y0051221D01*
X0075282Y0051252D01*
X0075172Y0051287D01*
X0075063Y0051326D01*
X0074956Y0051369D01*
X0074850Y0051416D01*
X0074746Y0051466D01*
X0074644Y0051520D01*
X0074544Y0051577D01*
X0074445Y0051637D01*
X0074349Y0051701D01*
X0074255Y0051769D01*
X0074164Y0051839D01*
X0074075Y0051913D01*
X0073988Y0051989D01*
X0073905Y0052069D01*
X0073824Y0052151D01*
X0073745Y0052236D01*
X0073670Y0052324D01*
X0073598Y0052414D01*
X0073530Y0052507D01*
X0073464Y0052602D01*
X0073402Y0052699D01*
X0073343Y0052799D01*
X0073287Y0052900D01*
X0073235Y0053003D01*
X0073187Y0053108D01*
X0073142Y0053215D01*
X0073101Y0053323D01*
X0073064Y0053432D01*
X0073031Y0053543D01*
X0073001Y0053654D01*
X0072976Y0053767D01*
X0072954Y0053880D01*
X0072936Y0053994D01*
X0072922Y0054109D01*
X0072912Y0054224D01*
X0072906Y0054340D01*
X0072904Y0054455D01*
X0072904Y0082014D02*
X0072906Y0082129D01*
X0072912Y0082245D01*
X0072922Y0082360D01*
X0072936Y0082475D01*
X0072954Y0082589D01*
X0072976Y0082702D01*
X0073001Y0082815D01*
X0073031Y0082926D01*
X0073064Y0083037D01*
X0073101Y0083146D01*
X0073142Y0083254D01*
X0073187Y0083361D01*
X0073235Y0083466D01*
X0073287Y0083569D01*
X0073343Y0083670D01*
X0073402Y0083770D01*
X0073464Y0083867D01*
X0073530Y0083962D01*
X0073598Y0084055D01*
X0073670Y0084145D01*
X0073745Y0084233D01*
X0073824Y0084318D01*
X0073905Y0084400D01*
X0073988Y0084480D01*
X0074075Y0084556D01*
X0074164Y0084630D01*
X0074255Y0084700D01*
X0074349Y0084768D01*
X0074445Y0084832D01*
X0074544Y0084892D01*
X0074644Y0084949D01*
X0074746Y0085003D01*
X0074850Y0085053D01*
X0074956Y0085100D01*
X0075063Y0085143D01*
X0075172Y0085182D01*
X0075282Y0085217D01*
X0075393Y0085248D01*
X0075505Y0085276D01*
X0075618Y0085300D01*
X0075732Y0085320D01*
X0075847Y0085336D01*
X0075962Y0085348D01*
X0076077Y0085356D01*
X0076192Y0085360D01*
X0076308Y0085360D01*
X0076423Y0085356D01*
X0076538Y0085348D01*
X0076653Y0085336D01*
X0076768Y0085320D01*
X0076882Y0085300D01*
X0076995Y0085276D01*
X0077107Y0085248D01*
X0077218Y0085217D01*
X0077328Y0085182D01*
X0077437Y0085143D01*
X0077544Y0085100D01*
X0077650Y0085053D01*
X0077754Y0085003D01*
X0077856Y0084949D01*
X0077956Y0084892D01*
X0078055Y0084832D01*
X0078151Y0084768D01*
X0078245Y0084700D01*
X0078336Y0084630D01*
X0078425Y0084556D01*
X0078512Y0084480D01*
X0078595Y0084400D01*
X0078676Y0084318D01*
X0078755Y0084233D01*
X0078830Y0084145D01*
X0078902Y0084055D01*
X0078970Y0083962D01*
X0079036Y0083867D01*
X0079098Y0083770D01*
X0079157Y0083670D01*
X0079213Y0083569D01*
X0079265Y0083466D01*
X0079313Y0083361D01*
X0079358Y0083254D01*
X0079399Y0083146D01*
X0079436Y0083037D01*
X0079469Y0082926D01*
X0079499Y0082815D01*
X0079524Y0082702D01*
X0079546Y0082589D01*
X0079564Y0082475D01*
X0079578Y0082360D01*
X0079588Y0082245D01*
X0079594Y0082129D01*
X0079596Y0082014D01*
X0079594Y0081899D01*
X0079588Y0081783D01*
X0079578Y0081668D01*
X0079564Y0081553D01*
X0079546Y0081439D01*
X0079524Y0081326D01*
X0079499Y0081213D01*
X0079469Y0081102D01*
X0079436Y0080991D01*
X0079399Y0080882D01*
X0079358Y0080774D01*
X0079313Y0080667D01*
X0079265Y0080562D01*
X0079213Y0080459D01*
X0079157Y0080358D01*
X0079098Y0080258D01*
X0079036Y0080161D01*
X0078970Y0080066D01*
X0078902Y0079973D01*
X0078830Y0079883D01*
X0078755Y0079795D01*
X0078676Y0079710D01*
X0078595Y0079628D01*
X0078512Y0079548D01*
X0078425Y0079472D01*
X0078336Y0079398D01*
X0078245Y0079328D01*
X0078151Y0079260D01*
X0078055Y0079196D01*
X0077956Y0079136D01*
X0077856Y0079079D01*
X0077754Y0079025D01*
X0077650Y0078975D01*
X0077544Y0078928D01*
X0077437Y0078885D01*
X0077328Y0078846D01*
X0077218Y0078811D01*
X0077107Y0078780D01*
X0076995Y0078752D01*
X0076882Y0078728D01*
X0076768Y0078708D01*
X0076653Y0078692D01*
X0076538Y0078680D01*
X0076423Y0078672D01*
X0076308Y0078668D01*
X0076192Y0078668D01*
X0076077Y0078672D01*
X0075962Y0078680D01*
X0075847Y0078692D01*
X0075732Y0078708D01*
X0075618Y0078728D01*
X0075505Y0078752D01*
X0075393Y0078780D01*
X0075282Y0078811D01*
X0075172Y0078846D01*
X0075063Y0078885D01*
X0074956Y0078928D01*
X0074850Y0078975D01*
X0074746Y0079025D01*
X0074644Y0079079D01*
X0074544Y0079136D01*
X0074445Y0079196D01*
X0074349Y0079260D01*
X0074255Y0079328D01*
X0074164Y0079398D01*
X0074075Y0079472D01*
X0073988Y0079548D01*
X0073905Y0079628D01*
X0073824Y0079710D01*
X0073745Y0079795D01*
X0073670Y0079883D01*
X0073598Y0079973D01*
X0073530Y0080066D01*
X0073464Y0080161D01*
X0073402Y0080258D01*
X0073343Y0080358D01*
X0073287Y0080459D01*
X0073235Y0080562D01*
X0073187Y0080667D01*
X0073142Y0080774D01*
X0073101Y0080882D01*
X0073064Y0080991D01*
X0073031Y0081102D01*
X0073001Y0081213D01*
X0072976Y0081326D01*
X0072954Y0081439D01*
X0072936Y0081553D01*
X0072922Y0081668D01*
X0072912Y0081783D01*
X0072906Y0081899D01*
X0072904Y0082014D01*
X0114154Y0082014D02*
X0114156Y0082129D01*
X0114162Y0082245D01*
X0114172Y0082360D01*
X0114186Y0082475D01*
X0114204Y0082589D01*
X0114226Y0082702D01*
X0114251Y0082815D01*
X0114281Y0082926D01*
X0114314Y0083037D01*
X0114351Y0083146D01*
X0114392Y0083254D01*
X0114437Y0083361D01*
X0114485Y0083466D01*
X0114537Y0083569D01*
X0114593Y0083670D01*
X0114652Y0083770D01*
X0114714Y0083867D01*
X0114780Y0083962D01*
X0114848Y0084055D01*
X0114920Y0084145D01*
X0114995Y0084233D01*
X0115074Y0084318D01*
X0115155Y0084400D01*
X0115238Y0084480D01*
X0115325Y0084556D01*
X0115414Y0084630D01*
X0115505Y0084700D01*
X0115599Y0084768D01*
X0115695Y0084832D01*
X0115794Y0084892D01*
X0115894Y0084949D01*
X0115996Y0085003D01*
X0116100Y0085053D01*
X0116206Y0085100D01*
X0116313Y0085143D01*
X0116422Y0085182D01*
X0116532Y0085217D01*
X0116643Y0085248D01*
X0116755Y0085276D01*
X0116868Y0085300D01*
X0116982Y0085320D01*
X0117097Y0085336D01*
X0117212Y0085348D01*
X0117327Y0085356D01*
X0117442Y0085360D01*
X0117558Y0085360D01*
X0117673Y0085356D01*
X0117788Y0085348D01*
X0117903Y0085336D01*
X0118018Y0085320D01*
X0118132Y0085300D01*
X0118245Y0085276D01*
X0118357Y0085248D01*
X0118468Y0085217D01*
X0118578Y0085182D01*
X0118687Y0085143D01*
X0118794Y0085100D01*
X0118900Y0085053D01*
X0119004Y0085003D01*
X0119106Y0084949D01*
X0119206Y0084892D01*
X0119305Y0084832D01*
X0119401Y0084768D01*
X0119495Y0084700D01*
X0119586Y0084630D01*
X0119675Y0084556D01*
X0119762Y0084480D01*
X0119845Y0084400D01*
X0119926Y0084318D01*
X0120005Y0084233D01*
X0120080Y0084145D01*
X0120152Y0084055D01*
X0120220Y0083962D01*
X0120286Y0083867D01*
X0120348Y0083770D01*
X0120407Y0083670D01*
X0120463Y0083569D01*
X0120515Y0083466D01*
X0120563Y0083361D01*
X0120608Y0083254D01*
X0120649Y0083146D01*
X0120686Y0083037D01*
X0120719Y0082926D01*
X0120749Y0082815D01*
X0120774Y0082702D01*
X0120796Y0082589D01*
X0120814Y0082475D01*
X0120828Y0082360D01*
X0120838Y0082245D01*
X0120844Y0082129D01*
X0120846Y0082014D01*
X0120844Y0081899D01*
X0120838Y0081783D01*
X0120828Y0081668D01*
X0120814Y0081553D01*
X0120796Y0081439D01*
X0120774Y0081326D01*
X0120749Y0081213D01*
X0120719Y0081102D01*
X0120686Y0080991D01*
X0120649Y0080882D01*
X0120608Y0080774D01*
X0120563Y0080667D01*
X0120515Y0080562D01*
X0120463Y0080459D01*
X0120407Y0080358D01*
X0120348Y0080258D01*
X0120286Y0080161D01*
X0120220Y0080066D01*
X0120152Y0079973D01*
X0120080Y0079883D01*
X0120005Y0079795D01*
X0119926Y0079710D01*
X0119845Y0079628D01*
X0119762Y0079548D01*
X0119675Y0079472D01*
X0119586Y0079398D01*
X0119495Y0079328D01*
X0119401Y0079260D01*
X0119305Y0079196D01*
X0119206Y0079136D01*
X0119106Y0079079D01*
X0119004Y0079025D01*
X0118900Y0078975D01*
X0118794Y0078928D01*
X0118687Y0078885D01*
X0118578Y0078846D01*
X0118468Y0078811D01*
X0118357Y0078780D01*
X0118245Y0078752D01*
X0118132Y0078728D01*
X0118018Y0078708D01*
X0117903Y0078692D01*
X0117788Y0078680D01*
X0117673Y0078672D01*
X0117558Y0078668D01*
X0117442Y0078668D01*
X0117327Y0078672D01*
X0117212Y0078680D01*
X0117097Y0078692D01*
X0116982Y0078708D01*
X0116868Y0078728D01*
X0116755Y0078752D01*
X0116643Y0078780D01*
X0116532Y0078811D01*
X0116422Y0078846D01*
X0116313Y0078885D01*
X0116206Y0078928D01*
X0116100Y0078975D01*
X0115996Y0079025D01*
X0115894Y0079079D01*
X0115794Y0079136D01*
X0115695Y0079196D01*
X0115599Y0079260D01*
X0115505Y0079328D01*
X0115414Y0079398D01*
X0115325Y0079472D01*
X0115238Y0079548D01*
X0115155Y0079628D01*
X0115074Y0079710D01*
X0114995Y0079795D01*
X0114920Y0079883D01*
X0114848Y0079973D01*
X0114780Y0080066D01*
X0114714Y0080161D01*
X0114652Y0080258D01*
X0114593Y0080358D01*
X0114537Y0080459D01*
X0114485Y0080562D01*
X0114437Y0080667D01*
X0114392Y0080774D01*
X0114351Y0080882D01*
X0114314Y0080991D01*
X0114281Y0081102D01*
X0114251Y0081213D01*
X0114226Y0081326D01*
X0114204Y0081439D01*
X0114186Y0081553D01*
X0114172Y0081668D01*
X0114162Y0081783D01*
X0114156Y0081899D01*
X0114154Y0082014D01*
X0114154Y0054455D02*
X0114156Y0054570D01*
X0114162Y0054686D01*
X0114172Y0054801D01*
X0114186Y0054916D01*
X0114204Y0055030D01*
X0114226Y0055143D01*
X0114251Y0055256D01*
X0114281Y0055367D01*
X0114314Y0055478D01*
X0114351Y0055587D01*
X0114392Y0055695D01*
X0114437Y0055802D01*
X0114485Y0055907D01*
X0114537Y0056010D01*
X0114593Y0056111D01*
X0114652Y0056211D01*
X0114714Y0056308D01*
X0114780Y0056403D01*
X0114848Y0056496D01*
X0114920Y0056586D01*
X0114995Y0056674D01*
X0115074Y0056759D01*
X0115155Y0056841D01*
X0115238Y0056921D01*
X0115325Y0056997D01*
X0115414Y0057071D01*
X0115505Y0057141D01*
X0115599Y0057209D01*
X0115695Y0057273D01*
X0115794Y0057333D01*
X0115894Y0057390D01*
X0115996Y0057444D01*
X0116100Y0057494D01*
X0116206Y0057541D01*
X0116313Y0057584D01*
X0116422Y0057623D01*
X0116532Y0057658D01*
X0116643Y0057689D01*
X0116755Y0057717D01*
X0116868Y0057741D01*
X0116982Y0057761D01*
X0117097Y0057777D01*
X0117212Y0057789D01*
X0117327Y0057797D01*
X0117442Y0057801D01*
X0117558Y0057801D01*
X0117673Y0057797D01*
X0117788Y0057789D01*
X0117903Y0057777D01*
X0118018Y0057761D01*
X0118132Y0057741D01*
X0118245Y0057717D01*
X0118357Y0057689D01*
X0118468Y0057658D01*
X0118578Y0057623D01*
X0118687Y0057584D01*
X0118794Y0057541D01*
X0118900Y0057494D01*
X0119004Y0057444D01*
X0119106Y0057390D01*
X0119206Y0057333D01*
X0119305Y0057273D01*
X0119401Y0057209D01*
X0119495Y0057141D01*
X0119586Y0057071D01*
X0119675Y0056997D01*
X0119762Y0056921D01*
X0119845Y0056841D01*
X0119926Y0056759D01*
X0120005Y0056674D01*
X0120080Y0056586D01*
X0120152Y0056496D01*
X0120220Y0056403D01*
X0120286Y0056308D01*
X0120348Y0056211D01*
X0120407Y0056111D01*
X0120463Y0056010D01*
X0120515Y0055907D01*
X0120563Y0055802D01*
X0120608Y0055695D01*
X0120649Y0055587D01*
X0120686Y0055478D01*
X0120719Y0055367D01*
X0120749Y0055256D01*
X0120774Y0055143D01*
X0120796Y0055030D01*
X0120814Y0054916D01*
X0120828Y0054801D01*
X0120838Y0054686D01*
X0120844Y0054570D01*
X0120846Y0054455D01*
X0120844Y0054340D01*
X0120838Y0054224D01*
X0120828Y0054109D01*
X0120814Y0053994D01*
X0120796Y0053880D01*
X0120774Y0053767D01*
X0120749Y0053654D01*
X0120719Y0053543D01*
X0120686Y0053432D01*
X0120649Y0053323D01*
X0120608Y0053215D01*
X0120563Y0053108D01*
X0120515Y0053003D01*
X0120463Y0052900D01*
X0120407Y0052799D01*
X0120348Y0052699D01*
X0120286Y0052602D01*
X0120220Y0052507D01*
X0120152Y0052414D01*
X0120080Y0052324D01*
X0120005Y0052236D01*
X0119926Y0052151D01*
X0119845Y0052069D01*
X0119762Y0051989D01*
X0119675Y0051913D01*
X0119586Y0051839D01*
X0119495Y0051769D01*
X0119401Y0051701D01*
X0119305Y0051637D01*
X0119206Y0051577D01*
X0119106Y0051520D01*
X0119004Y0051466D01*
X0118900Y0051416D01*
X0118794Y0051369D01*
X0118687Y0051326D01*
X0118578Y0051287D01*
X0118468Y0051252D01*
X0118357Y0051221D01*
X0118245Y0051193D01*
X0118132Y0051169D01*
X0118018Y0051149D01*
X0117903Y0051133D01*
X0117788Y0051121D01*
X0117673Y0051113D01*
X0117558Y0051109D01*
X0117442Y0051109D01*
X0117327Y0051113D01*
X0117212Y0051121D01*
X0117097Y0051133D01*
X0116982Y0051149D01*
X0116868Y0051169D01*
X0116755Y0051193D01*
X0116643Y0051221D01*
X0116532Y0051252D01*
X0116422Y0051287D01*
X0116313Y0051326D01*
X0116206Y0051369D01*
X0116100Y0051416D01*
X0115996Y0051466D01*
X0115894Y0051520D01*
X0115794Y0051577D01*
X0115695Y0051637D01*
X0115599Y0051701D01*
X0115505Y0051769D01*
X0115414Y0051839D01*
X0115325Y0051913D01*
X0115238Y0051989D01*
X0115155Y0052069D01*
X0115074Y0052151D01*
X0114995Y0052236D01*
X0114920Y0052324D01*
X0114848Y0052414D01*
X0114780Y0052507D01*
X0114714Y0052602D01*
X0114652Y0052699D01*
X0114593Y0052799D01*
X0114537Y0052900D01*
X0114485Y0053003D01*
X0114437Y0053108D01*
X0114392Y0053215D01*
X0114351Y0053323D01*
X0114314Y0053432D01*
X0114281Y0053543D01*
X0114251Y0053654D01*
X0114226Y0053767D01*
X0114204Y0053880D01*
X0114186Y0053994D01*
X0114172Y0054109D01*
X0114162Y0054224D01*
X0114156Y0054340D01*
X0114154Y0054455D01*
X0122766Y0028500D02*
X0122768Y0028562D01*
X0122774Y0028625D01*
X0122784Y0028686D01*
X0122798Y0028747D01*
X0122815Y0028807D01*
X0122836Y0028866D01*
X0122862Y0028923D01*
X0122890Y0028978D01*
X0122922Y0029032D01*
X0122958Y0029083D01*
X0122996Y0029133D01*
X0123038Y0029179D01*
X0123082Y0029223D01*
X0123130Y0029264D01*
X0123179Y0029302D01*
X0123231Y0029336D01*
X0123285Y0029367D01*
X0123341Y0029395D01*
X0123399Y0029419D01*
X0123458Y0029440D01*
X0123518Y0029456D01*
X0123579Y0029469D01*
X0123641Y0029478D01*
X0123703Y0029483D01*
X0123766Y0029484D01*
X0123828Y0029481D01*
X0123890Y0029474D01*
X0123952Y0029463D01*
X0124012Y0029448D01*
X0124072Y0029430D01*
X0124130Y0029408D01*
X0124187Y0029382D01*
X0124242Y0029352D01*
X0124295Y0029319D01*
X0124346Y0029283D01*
X0124394Y0029244D01*
X0124440Y0029201D01*
X0124483Y0029156D01*
X0124523Y0029108D01*
X0124560Y0029058D01*
X0124594Y0029005D01*
X0124625Y0028951D01*
X0124651Y0028895D01*
X0124675Y0028837D01*
X0124694Y0028777D01*
X0124710Y0028717D01*
X0124722Y0028655D01*
X0124730Y0028594D01*
X0124734Y0028531D01*
X0124734Y0028469D01*
X0124730Y0028406D01*
X0124722Y0028345D01*
X0124710Y0028283D01*
X0124694Y0028223D01*
X0124675Y0028163D01*
X0124651Y0028105D01*
X0124625Y0028049D01*
X0124594Y0027995D01*
X0124560Y0027942D01*
X0124523Y0027892D01*
X0124483Y0027844D01*
X0124440Y0027799D01*
X0124394Y0027756D01*
X0124346Y0027717D01*
X0124295Y0027681D01*
X0124242Y0027648D01*
X0124187Y0027618D01*
X0124130Y0027592D01*
X0124072Y0027570D01*
X0124012Y0027552D01*
X0123952Y0027537D01*
X0123890Y0027526D01*
X0123828Y0027519D01*
X0123766Y0027516D01*
X0123703Y0027517D01*
X0123641Y0027522D01*
X0123579Y0027531D01*
X0123518Y0027544D01*
X0123458Y0027560D01*
X0123399Y0027581D01*
X0123341Y0027605D01*
X0123285Y0027633D01*
X0123231Y0027664D01*
X0123179Y0027698D01*
X0123130Y0027736D01*
X0123082Y0027777D01*
X0123038Y0027821D01*
X0122996Y0027867D01*
X0122958Y0027917D01*
X0122922Y0027968D01*
X0122890Y0028022D01*
X0122862Y0028077D01*
X0122836Y0028134D01*
X0122815Y0028193D01*
X0122798Y0028253D01*
X0122784Y0028314D01*
X0122774Y0028375D01*
X0122768Y0028438D01*
X0122766Y0028500D01*
X0122766Y0025375D02*
X0122768Y0025437D01*
X0122774Y0025500D01*
X0122784Y0025561D01*
X0122798Y0025622D01*
X0122815Y0025682D01*
X0122836Y0025741D01*
X0122862Y0025798D01*
X0122890Y0025853D01*
X0122922Y0025907D01*
X0122958Y0025958D01*
X0122996Y0026008D01*
X0123038Y0026054D01*
X0123082Y0026098D01*
X0123130Y0026139D01*
X0123179Y0026177D01*
X0123231Y0026211D01*
X0123285Y0026242D01*
X0123341Y0026270D01*
X0123399Y0026294D01*
X0123458Y0026315D01*
X0123518Y0026331D01*
X0123579Y0026344D01*
X0123641Y0026353D01*
X0123703Y0026358D01*
X0123766Y0026359D01*
X0123828Y0026356D01*
X0123890Y0026349D01*
X0123952Y0026338D01*
X0124012Y0026323D01*
X0124072Y0026305D01*
X0124130Y0026283D01*
X0124187Y0026257D01*
X0124242Y0026227D01*
X0124295Y0026194D01*
X0124346Y0026158D01*
X0124394Y0026119D01*
X0124440Y0026076D01*
X0124483Y0026031D01*
X0124523Y0025983D01*
X0124560Y0025933D01*
X0124594Y0025880D01*
X0124625Y0025826D01*
X0124651Y0025770D01*
X0124675Y0025712D01*
X0124694Y0025652D01*
X0124710Y0025592D01*
X0124722Y0025530D01*
X0124730Y0025469D01*
X0124734Y0025406D01*
X0124734Y0025344D01*
X0124730Y0025281D01*
X0124722Y0025220D01*
X0124710Y0025158D01*
X0124694Y0025098D01*
X0124675Y0025038D01*
X0124651Y0024980D01*
X0124625Y0024924D01*
X0124594Y0024870D01*
X0124560Y0024817D01*
X0124523Y0024767D01*
X0124483Y0024719D01*
X0124440Y0024674D01*
X0124394Y0024631D01*
X0124346Y0024592D01*
X0124295Y0024556D01*
X0124242Y0024523D01*
X0124187Y0024493D01*
X0124130Y0024467D01*
X0124072Y0024445D01*
X0124012Y0024427D01*
X0123952Y0024412D01*
X0123890Y0024401D01*
X0123828Y0024394D01*
X0123766Y0024391D01*
X0123703Y0024392D01*
X0123641Y0024397D01*
X0123579Y0024406D01*
X0123518Y0024419D01*
X0123458Y0024435D01*
X0123399Y0024456D01*
X0123341Y0024480D01*
X0123285Y0024508D01*
X0123231Y0024539D01*
X0123179Y0024573D01*
X0123130Y0024611D01*
X0123082Y0024652D01*
X0123038Y0024696D01*
X0122996Y0024742D01*
X0122958Y0024792D01*
X0122922Y0024843D01*
X0122890Y0024897D01*
X0122862Y0024952D01*
X0122836Y0025009D01*
X0122815Y0025068D01*
X0122798Y0025128D01*
X0122784Y0025189D01*
X0122774Y0025250D01*
X0122768Y0025313D01*
X0122766Y0025375D01*
X0122766Y0022250D02*
X0122768Y0022312D01*
X0122774Y0022375D01*
X0122784Y0022436D01*
X0122798Y0022497D01*
X0122815Y0022557D01*
X0122836Y0022616D01*
X0122862Y0022673D01*
X0122890Y0022728D01*
X0122922Y0022782D01*
X0122958Y0022833D01*
X0122996Y0022883D01*
X0123038Y0022929D01*
X0123082Y0022973D01*
X0123130Y0023014D01*
X0123179Y0023052D01*
X0123231Y0023086D01*
X0123285Y0023117D01*
X0123341Y0023145D01*
X0123399Y0023169D01*
X0123458Y0023190D01*
X0123518Y0023206D01*
X0123579Y0023219D01*
X0123641Y0023228D01*
X0123703Y0023233D01*
X0123766Y0023234D01*
X0123828Y0023231D01*
X0123890Y0023224D01*
X0123952Y0023213D01*
X0124012Y0023198D01*
X0124072Y0023180D01*
X0124130Y0023158D01*
X0124187Y0023132D01*
X0124242Y0023102D01*
X0124295Y0023069D01*
X0124346Y0023033D01*
X0124394Y0022994D01*
X0124440Y0022951D01*
X0124483Y0022906D01*
X0124523Y0022858D01*
X0124560Y0022808D01*
X0124594Y0022755D01*
X0124625Y0022701D01*
X0124651Y0022645D01*
X0124675Y0022587D01*
X0124694Y0022527D01*
X0124710Y0022467D01*
X0124722Y0022405D01*
X0124730Y0022344D01*
X0124734Y0022281D01*
X0124734Y0022219D01*
X0124730Y0022156D01*
X0124722Y0022095D01*
X0124710Y0022033D01*
X0124694Y0021973D01*
X0124675Y0021913D01*
X0124651Y0021855D01*
X0124625Y0021799D01*
X0124594Y0021745D01*
X0124560Y0021692D01*
X0124523Y0021642D01*
X0124483Y0021594D01*
X0124440Y0021549D01*
X0124394Y0021506D01*
X0124346Y0021467D01*
X0124295Y0021431D01*
X0124242Y0021398D01*
X0124187Y0021368D01*
X0124130Y0021342D01*
X0124072Y0021320D01*
X0124012Y0021302D01*
X0123952Y0021287D01*
X0123890Y0021276D01*
X0123828Y0021269D01*
X0123766Y0021266D01*
X0123703Y0021267D01*
X0123641Y0021272D01*
X0123579Y0021281D01*
X0123518Y0021294D01*
X0123458Y0021310D01*
X0123399Y0021331D01*
X0123341Y0021355D01*
X0123285Y0021383D01*
X0123231Y0021414D01*
X0123179Y0021448D01*
X0123130Y0021486D01*
X0123082Y0021527D01*
X0123038Y0021571D01*
X0122996Y0021617D01*
X0122958Y0021667D01*
X0122922Y0021718D01*
X0122890Y0021772D01*
X0122862Y0021827D01*
X0122836Y0021884D01*
X0122815Y0021943D01*
X0122798Y0022003D01*
X0122784Y0022064D01*
X0122774Y0022125D01*
X0122768Y0022188D01*
X0122766Y0022250D01*
X0125891Y0022250D02*
X0125893Y0022312D01*
X0125899Y0022375D01*
X0125909Y0022436D01*
X0125923Y0022497D01*
X0125940Y0022557D01*
X0125961Y0022616D01*
X0125987Y0022673D01*
X0126015Y0022728D01*
X0126047Y0022782D01*
X0126083Y0022833D01*
X0126121Y0022883D01*
X0126163Y0022929D01*
X0126207Y0022973D01*
X0126255Y0023014D01*
X0126304Y0023052D01*
X0126356Y0023086D01*
X0126410Y0023117D01*
X0126466Y0023145D01*
X0126524Y0023169D01*
X0126583Y0023190D01*
X0126643Y0023206D01*
X0126704Y0023219D01*
X0126766Y0023228D01*
X0126828Y0023233D01*
X0126891Y0023234D01*
X0126953Y0023231D01*
X0127015Y0023224D01*
X0127077Y0023213D01*
X0127137Y0023198D01*
X0127197Y0023180D01*
X0127255Y0023158D01*
X0127312Y0023132D01*
X0127367Y0023102D01*
X0127420Y0023069D01*
X0127471Y0023033D01*
X0127519Y0022994D01*
X0127565Y0022951D01*
X0127608Y0022906D01*
X0127648Y0022858D01*
X0127685Y0022808D01*
X0127719Y0022755D01*
X0127750Y0022701D01*
X0127776Y0022645D01*
X0127800Y0022587D01*
X0127819Y0022527D01*
X0127835Y0022467D01*
X0127847Y0022405D01*
X0127855Y0022344D01*
X0127859Y0022281D01*
X0127859Y0022219D01*
X0127855Y0022156D01*
X0127847Y0022095D01*
X0127835Y0022033D01*
X0127819Y0021973D01*
X0127800Y0021913D01*
X0127776Y0021855D01*
X0127750Y0021799D01*
X0127719Y0021745D01*
X0127685Y0021692D01*
X0127648Y0021642D01*
X0127608Y0021594D01*
X0127565Y0021549D01*
X0127519Y0021506D01*
X0127471Y0021467D01*
X0127420Y0021431D01*
X0127367Y0021398D01*
X0127312Y0021368D01*
X0127255Y0021342D01*
X0127197Y0021320D01*
X0127137Y0021302D01*
X0127077Y0021287D01*
X0127015Y0021276D01*
X0126953Y0021269D01*
X0126891Y0021266D01*
X0126828Y0021267D01*
X0126766Y0021272D01*
X0126704Y0021281D01*
X0126643Y0021294D01*
X0126583Y0021310D01*
X0126524Y0021331D01*
X0126466Y0021355D01*
X0126410Y0021383D01*
X0126356Y0021414D01*
X0126304Y0021448D01*
X0126255Y0021486D01*
X0126207Y0021527D01*
X0126163Y0021571D01*
X0126121Y0021617D01*
X0126083Y0021667D01*
X0126047Y0021718D01*
X0126015Y0021772D01*
X0125987Y0021827D01*
X0125961Y0021884D01*
X0125940Y0021943D01*
X0125923Y0022003D01*
X0125909Y0022064D01*
X0125899Y0022125D01*
X0125893Y0022188D01*
X0125891Y0022250D01*
X0125891Y0025375D02*
X0125893Y0025437D01*
X0125899Y0025500D01*
X0125909Y0025561D01*
X0125923Y0025622D01*
X0125940Y0025682D01*
X0125961Y0025741D01*
X0125987Y0025798D01*
X0126015Y0025853D01*
X0126047Y0025907D01*
X0126083Y0025958D01*
X0126121Y0026008D01*
X0126163Y0026054D01*
X0126207Y0026098D01*
X0126255Y0026139D01*
X0126304Y0026177D01*
X0126356Y0026211D01*
X0126410Y0026242D01*
X0126466Y0026270D01*
X0126524Y0026294D01*
X0126583Y0026315D01*
X0126643Y0026331D01*
X0126704Y0026344D01*
X0126766Y0026353D01*
X0126828Y0026358D01*
X0126891Y0026359D01*
X0126953Y0026356D01*
X0127015Y0026349D01*
X0127077Y0026338D01*
X0127137Y0026323D01*
X0127197Y0026305D01*
X0127255Y0026283D01*
X0127312Y0026257D01*
X0127367Y0026227D01*
X0127420Y0026194D01*
X0127471Y0026158D01*
X0127519Y0026119D01*
X0127565Y0026076D01*
X0127608Y0026031D01*
X0127648Y0025983D01*
X0127685Y0025933D01*
X0127719Y0025880D01*
X0127750Y0025826D01*
X0127776Y0025770D01*
X0127800Y0025712D01*
X0127819Y0025652D01*
X0127835Y0025592D01*
X0127847Y0025530D01*
X0127855Y0025469D01*
X0127859Y0025406D01*
X0127859Y0025344D01*
X0127855Y0025281D01*
X0127847Y0025220D01*
X0127835Y0025158D01*
X0127819Y0025098D01*
X0127800Y0025038D01*
X0127776Y0024980D01*
X0127750Y0024924D01*
X0127719Y0024870D01*
X0127685Y0024817D01*
X0127648Y0024767D01*
X0127608Y0024719D01*
X0127565Y0024674D01*
X0127519Y0024631D01*
X0127471Y0024592D01*
X0127420Y0024556D01*
X0127367Y0024523D01*
X0127312Y0024493D01*
X0127255Y0024467D01*
X0127197Y0024445D01*
X0127137Y0024427D01*
X0127077Y0024412D01*
X0127015Y0024401D01*
X0126953Y0024394D01*
X0126891Y0024391D01*
X0126828Y0024392D01*
X0126766Y0024397D01*
X0126704Y0024406D01*
X0126643Y0024419D01*
X0126583Y0024435D01*
X0126524Y0024456D01*
X0126466Y0024480D01*
X0126410Y0024508D01*
X0126356Y0024539D01*
X0126304Y0024573D01*
X0126255Y0024611D01*
X0126207Y0024652D01*
X0126163Y0024696D01*
X0126121Y0024742D01*
X0126083Y0024792D01*
X0126047Y0024843D01*
X0126015Y0024897D01*
X0125987Y0024952D01*
X0125961Y0025009D01*
X0125940Y0025068D01*
X0125923Y0025128D01*
X0125909Y0025189D01*
X0125899Y0025250D01*
X0125893Y0025313D01*
X0125891Y0025375D01*
X0125891Y0028500D02*
X0125893Y0028562D01*
X0125899Y0028625D01*
X0125909Y0028686D01*
X0125923Y0028747D01*
X0125940Y0028807D01*
X0125961Y0028866D01*
X0125987Y0028923D01*
X0126015Y0028978D01*
X0126047Y0029032D01*
X0126083Y0029083D01*
X0126121Y0029133D01*
X0126163Y0029179D01*
X0126207Y0029223D01*
X0126255Y0029264D01*
X0126304Y0029302D01*
X0126356Y0029336D01*
X0126410Y0029367D01*
X0126466Y0029395D01*
X0126524Y0029419D01*
X0126583Y0029440D01*
X0126643Y0029456D01*
X0126704Y0029469D01*
X0126766Y0029478D01*
X0126828Y0029483D01*
X0126891Y0029484D01*
X0126953Y0029481D01*
X0127015Y0029474D01*
X0127077Y0029463D01*
X0127137Y0029448D01*
X0127197Y0029430D01*
X0127255Y0029408D01*
X0127312Y0029382D01*
X0127367Y0029352D01*
X0127420Y0029319D01*
X0127471Y0029283D01*
X0127519Y0029244D01*
X0127565Y0029201D01*
X0127608Y0029156D01*
X0127648Y0029108D01*
X0127685Y0029058D01*
X0127719Y0029005D01*
X0127750Y0028951D01*
X0127776Y0028895D01*
X0127800Y0028837D01*
X0127819Y0028777D01*
X0127835Y0028717D01*
X0127847Y0028655D01*
X0127855Y0028594D01*
X0127859Y0028531D01*
X0127859Y0028469D01*
X0127855Y0028406D01*
X0127847Y0028345D01*
X0127835Y0028283D01*
X0127819Y0028223D01*
X0127800Y0028163D01*
X0127776Y0028105D01*
X0127750Y0028049D01*
X0127719Y0027995D01*
X0127685Y0027942D01*
X0127648Y0027892D01*
X0127608Y0027844D01*
X0127565Y0027799D01*
X0127519Y0027756D01*
X0127471Y0027717D01*
X0127420Y0027681D01*
X0127367Y0027648D01*
X0127312Y0027618D01*
X0127255Y0027592D01*
X0127197Y0027570D01*
X0127137Y0027552D01*
X0127077Y0027537D01*
X0127015Y0027526D01*
X0126953Y0027519D01*
X0126891Y0027516D01*
X0126828Y0027517D01*
X0126766Y0027522D01*
X0126704Y0027531D01*
X0126643Y0027544D01*
X0126583Y0027560D01*
X0126524Y0027581D01*
X0126466Y0027605D01*
X0126410Y0027633D01*
X0126356Y0027664D01*
X0126304Y0027698D01*
X0126255Y0027736D01*
X0126207Y0027777D01*
X0126163Y0027821D01*
X0126121Y0027867D01*
X0126083Y0027917D01*
X0126047Y0027968D01*
X0126015Y0028022D01*
X0125987Y0028077D01*
X0125961Y0028134D01*
X0125940Y0028193D01*
X0125923Y0028253D01*
X0125909Y0028314D01*
X0125899Y0028375D01*
X0125893Y0028438D01*
X0125891Y0028500D01*
X0129016Y0028500D02*
X0129018Y0028562D01*
X0129024Y0028625D01*
X0129034Y0028686D01*
X0129048Y0028747D01*
X0129065Y0028807D01*
X0129086Y0028866D01*
X0129112Y0028923D01*
X0129140Y0028978D01*
X0129172Y0029032D01*
X0129208Y0029083D01*
X0129246Y0029133D01*
X0129288Y0029179D01*
X0129332Y0029223D01*
X0129380Y0029264D01*
X0129429Y0029302D01*
X0129481Y0029336D01*
X0129535Y0029367D01*
X0129591Y0029395D01*
X0129649Y0029419D01*
X0129708Y0029440D01*
X0129768Y0029456D01*
X0129829Y0029469D01*
X0129891Y0029478D01*
X0129953Y0029483D01*
X0130016Y0029484D01*
X0130078Y0029481D01*
X0130140Y0029474D01*
X0130202Y0029463D01*
X0130262Y0029448D01*
X0130322Y0029430D01*
X0130380Y0029408D01*
X0130437Y0029382D01*
X0130492Y0029352D01*
X0130545Y0029319D01*
X0130596Y0029283D01*
X0130644Y0029244D01*
X0130690Y0029201D01*
X0130733Y0029156D01*
X0130773Y0029108D01*
X0130810Y0029058D01*
X0130844Y0029005D01*
X0130875Y0028951D01*
X0130901Y0028895D01*
X0130925Y0028837D01*
X0130944Y0028777D01*
X0130960Y0028717D01*
X0130972Y0028655D01*
X0130980Y0028594D01*
X0130984Y0028531D01*
X0130984Y0028469D01*
X0130980Y0028406D01*
X0130972Y0028345D01*
X0130960Y0028283D01*
X0130944Y0028223D01*
X0130925Y0028163D01*
X0130901Y0028105D01*
X0130875Y0028049D01*
X0130844Y0027995D01*
X0130810Y0027942D01*
X0130773Y0027892D01*
X0130733Y0027844D01*
X0130690Y0027799D01*
X0130644Y0027756D01*
X0130596Y0027717D01*
X0130545Y0027681D01*
X0130492Y0027648D01*
X0130437Y0027618D01*
X0130380Y0027592D01*
X0130322Y0027570D01*
X0130262Y0027552D01*
X0130202Y0027537D01*
X0130140Y0027526D01*
X0130078Y0027519D01*
X0130016Y0027516D01*
X0129953Y0027517D01*
X0129891Y0027522D01*
X0129829Y0027531D01*
X0129768Y0027544D01*
X0129708Y0027560D01*
X0129649Y0027581D01*
X0129591Y0027605D01*
X0129535Y0027633D01*
X0129481Y0027664D01*
X0129429Y0027698D01*
X0129380Y0027736D01*
X0129332Y0027777D01*
X0129288Y0027821D01*
X0129246Y0027867D01*
X0129208Y0027917D01*
X0129172Y0027968D01*
X0129140Y0028022D01*
X0129112Y0028077D01*
X0129086Y0028134D01*
X0129065Y0028193D01*
X0129048Y0028253D01*
X0129034Y0028314D01*
X0129024Y0028375D01*
X0129018Y0028438D01*
X0129016Y0028500D01*
X0129016Y0025375D02*
X0129018Y0025437D01*
X0129024Y0025500D01*
X0129034Y0025561D01*
X0129048Y0025622D01*
X0129065Y0025682D01*
X0129086Y0025741D01*
X0129112Y0025798D01*
X0129140Y0025853D01*
X0129172Y0025907D01*
X0129208Y0025958D01*
X0129246Y0026008D01*
X0129288Y0026054D01*
X0129332Y0026098D01*
X0129380Y0026139D01*
X0129429Y0026177D01*
X0129481Y0026211D01*
X0129535Y0026242D01*
X0129591Y0026270D01*
X0129649Y0026294D01*
X0129708Y0026315D01*
X0129768Y0026331D01*
X0129829Y0026344D01*
X0129891Y0026353D01*
X0129953Y0026358D01*
X0130016Y0026359D01*
X0130078Y0026356D01*
X0130140Y0026349D01*
X0130202Y0026338D01*
X0130262Y0026323D01*
X0130322Y0026305D01*
X0130380Y0026283D01*
X0130437Y0026257D01*
X0130492Y0026227D01*
X0130545Y0026194D01*
X0130596Y0026158D01*
X0130644Y0026119D01*
X0130690Y0026076D01*
X0130733Y0026031D01*
X0130773Y0025983D01*
X0130810Y0025933D01*
X0130844Y0025880D01*
X0130875Y0025826D01*
X0130901Y0025770D01*
X0130925Y0025712D01*
X0130944Y0025652D01*
X0130960Y0025592D01*
X0130972Y0025530D01*
X0130980Y0025469D01*
X0130984Y0025406D01*
X0130984Y0025344D01*
X0130980Y0025281D01*
X0130972Y0025220D01*
X0130960Y0025158D01*
X0130944Y0025098D01*
X0130925Y0025038D01*
X0130901Y0024980D01*
X0130875Y0024924D01*
X0130844Y0024870D01*
X0130810Y0024817D01*
X0130773Y0024767D01*
X0130733Y0024719D01*
X0130690Y0024674D01*
X0130644Y0024631D01*
X0130596Y0024592D01*
X0130545Y0024556D01*
X0130492Y0024523D01*
X0130437Y0024493D01*
X0130380Y0024467D01*
X0130322Y0024445D01*
X0130262Y0024427D01*
X0130202Y0024412D01*
X0130140Y0024401D01*
X0130078Y0024394D01*
X0130016Y0024391D01*
X0129953Y0024392D01*
X0129891Y0024397D01*
X0129829Y0024406D01*
X0129768Y0024419D01*
X0129708Y0024435D01*
X0129649Y0024456D01*
X0129591Y0024480D01*
X0129535Y0024508D01*
X0129481Y0024539D01*
X0129429Y0024573D01*
X0129380Y0024611D01*
X0129332Y0024652D01*
X0129288Y0024696D01*
X0129246Y0024742D01*
X0129208Y0024792D01*
X0129172Y0024843D01*
X0129140Y0024897D01*
X0129112Y0024952D01*
X0129086Y0025009D01*
X0129065Y0025068D01*
X0129048Y0025128D01*
X0129034Y0025189D01*
X0129024Y0025250D01*
X0129018Y0025313D01*
X0129016Y0025375D01*
X0129016Y0022250D02*
X0129018Y0022312D01*
X0129024Y0022375D01*
X0129034Y0022436D01*
X0129048Y0022497D01*
X0129065Y0022557D01*
X0129086Y0022616D01*
X0129112Y0022673D01*
X0129140Y0022728D01*
X0129172Y0022782D01*
X0129208Y0022833D01*
X0129246Y0022883D01*
X0129288Y0022929D01*
X0129332Y0022973D01*
X0129380Y0023014D01*
X0129429Y0023052D01*
X0129481Y0023086D01*
X0129535Y0023117D01*
X0129591Y0023145D01*
X0129649Y0023169D01*
X0129708Y0023190D01*
X0129768Y0023206D01*
X0129829Y0023219D01*
X0129891Y0023228D01*
X0129953Y0023233D01*
X0130016Y0023234D01*
X0130078Y0023231D01*
X0130140Y0023224D01*
X0130202Y0023213D01*
X0130262Y0023198D01*
X0130322Y0023180D01*
X0130380Y0023158D01*
X0130437Y0023132D01*
X0130492Y0023102D01*
X0130545Y0023069D01*
X0130596Y0023033D01*
X0130644Y0022994D01*
X0130690Y0022951D01*
X0130733Y0022906D01*
X0130773Y0022858D01*
X0130810Y0022808D01*
X0130844Y0022755D01*
X0130875Y0022701D01*
X0130901Y0022645D01*
X0130925Y0022587D01*
X0130944Y0022527D01*
X0130960Y0022467D01*
X0130972Y0022405D01*
X0130980Y0022344D01*
X0130984Y0022281D01*
X0130984Y0022219D01*
X0130980Y0022156D01*
X0130972Y0022095D01*
X0130960Y0022033D01*
X0130944Y0021973D01*
X0130925Y0021913D01*
X0130901Y0021855D01*
X0130875Y0021799D01*
X0130844Y0021745D01*
X0130810Y0021692D01*
X0130773Y0021642D01*
X0130733Y0021594D01*
X0130690Y0021549D01*
X0130644Y0021506D01*
X0130596Y0021467D01*
X0130545Y0021431D01*
X0130492Y0021398D01*
X0130437Y0021368D01*
X0130380Y0021342D01*
X0130322Y0021320D01*
X0130262Y0021302D01*
X0130202Y0021287D01*
X0130140Y0021276D01*
X0130078Y0021269D01*
X0130016Y0021266D01*
X0129953Y0021267D01*
X0129891Y0021272D01*
X0129829Y0021281D01*
X0129768Y0021294D01*
X0129708Y0021310D01*
X0129649Y0021331D01*
X0129591Y0021355D01*
X0129535Y0021383D01*
X0129481Y0021414D01*
X0129429Y0021448D01*
X0129380Y0021486D01*
X0129332Y0021527D01*
X0129288Y0021571D01*
X0129246Y0021617D01*
X0129208Y0021667D01*
X0129172Y0021718D01*
X0129140Y0021772D01*
X0129112Y0021827D01*
X0129086Y0021884D01*
X0129065Y0021943D01*
X0129048Y0022003D01*
X0129034Y0022064D01*
X0129024Y0022125D01*
X0129018Y0022188D01*
X0129016Y0022250D01*
X0128076Y0011000D02*
X0128078Y0011158D01*
X0128084Y0011316D01*
X0128094Y0011474D01*
X0128108Y0011632D01*
X0128126Y0011789D01*
X0128147Y0011946D01*
X0128173Y0012102D01*
X0128203Y0012258D01*
X0128236Y0012413D01*
X0128274Y0012566D01*
X0128315Y0012719D01*
X0128360Y0012871D01*
X0128409Y0013022D01*
X0128462Y0013171D01*
X0128518Y0013319D01*
X0128578Y0013465D01*
X0128642Y0013610D01*
X0128710Y0013753D01*
X0128781Y0013895D01*
X0128855Y0014035D01*
X0128933Y0014172D01*
X0129015Y0014308D01*
X0129099Y0014442D01*
X0129188Y0014573D01*
X0129279Y0014702D01*
X0129374Y0014829D01*
X0129471Y0014954D01*
X0129572Y0015076D01*
X0129676Y0015195D01*
X0129783Y0015312D01*
X0129893Y0015426D01*
X0130006Y0015537D01*
X0130121Y0015646D01*
X0130239Y0015751D01*
X0130360Y0015853D01*
X0130483Y0015953D01*
X0130609Y0016049D01*
X0130737Y0016142D01*
X0130867Y0016232D01*
X0131000Y0016318D01*
X0131135Y0016402D01*
X0131271Y0016481D01*
X0131410Y0016558D01*
X0131551Y0016630D01*
X0131693Y0016700D01*
X0131837Y0016765D01*
X0131983Y0016827D01*
X0132130Y0016885D01*
X0132279Y0016940D01*
X0132429Y0016991D01*
X0132580Y0017038D01*
X0132732Y0017081D01*
X0132885Y0017120D01*
X0133040Y0017156D01*
X0133195Y0017187D01*
X0133351Y0017215D01*
X0133507Y0017239D01*
X0133664Y0017259D01*
X0133822Y0017275D01*
X0133979Y0017287D01*
X0134138Y0017295D01*
X0134296Y0017299D01*
X0134454Y0017299D01*
X0134612Y0017295D01*
X0134771Y0017287D01*
X0134928Y0017275D01*
X0135086Y0017259D01*
X0135243Y0017239D01*
X0135399Y0017215D01*
X0135555Y0017187D01*
X0135710Y0017156D01*
X0135865Y0017120D01*
X0136018Y0017081D01*
X0136170Y0017038D01*
X0136321Y0016991D01*
X0136471Y0016940D01*
X0136620Y0016885D01*
X0136767Y0016827D01*
X0136913Y0016765D01*
X0137057Y0016700D01*
X0137199Y0016630D01*
X0137340Y0016558D01*
X0137479Y0016481D01*
X0137615Y0016402D01*
X0137750Y0016318D01*
X0137883Y0016232D01*
X0138013Y0016142D01*
X0138141Y0016049D01*
X0138267Y0015953D01*
X0138390Y0015853D01*
X0138511Y0015751D01*
X0138629Y0015646D01*
X0138744Y0015537D01*
X0138857Y0015426D01*
X0138967Y0015312D01*
X0139074Y0015195D01*
X0139178Y0015076D01*
X0139279Y0014954D01*
X0139376Y0014829D01*
X0139471Y0014702D01*
X0139562Y0014573D01*
X0139651Y0014442D01*
X0139735Y0014308D01*
X0139817Y0014172D01*
X0139895Y0014035D01*
X0139969Y0013895D01*
X0140040Y0013753D01*
X0140108Y0013610D01*
X0140172Y0013465D01*
X0140232Y0013319D01*
X0140288Y0013171D01*
X0140341Y0013022D01*
X0140390Y0012871D01*
X0140435Y0012719D01*
X0140476Y0012566D01*
X0140514Y0012413D01*
X0140547Y0012258D01*
X0140577Y0012102D01*
X0140603Y0011946D01*
X0140624Y0011789D01*
X0140642Y0011632D01*
X0140656Y0011474D01*
X0140666Y0011316D01*
X0140672Y0011158D01*
X0140674Y0011000D01*
X0140672Y0010842D01*
X0140666Y0010684D01*
X0140656Y0010526D01*
X0140642Y0010368D01*
X0140624Y0010211D01*
X0140603Y0010054D01*
X0140577Y0009898D01*
X0140547Y0009742D01*
X0140514Y0009587D01*
X0140476Y0009434D01*
X0140435Y0009281D01*
X0140390Y0009129D01*
X0140341Y0008978D01*
X0140288Y0008829D01*
X0140232Y0008681D01*
X0140172Y0008535D01*
X0140108Y0008390D01*
X0140040Y0008247D01*
X0139969Y0008105D01*
X0139895Y0007965D01*
X0139817Y0007828D01*
X0139735Y0007692D01*
X0139651Y0007558D01*
X0139562Y0007427D01*
X0139471Y0007298D01*
X0139376Y0007171D01*
X0139279Y0007046D01*
X0139178Y0006924D01*
X0139074Y0006805D01*
X0138967Y0006688D01*
X0138857Y0006574D01*
X0138744Y0006463D01*
X0138629Y0006354D01*
X0138511Y0006249D01*
X0138390Y0006147D01*
X0138267Y0006047D01*
X0138141Y0005951D01*
X0138013Y0005858D01*
X0137883Y0005768D01*
X0137750Y0005682D01*
X0137615Y0005598D01*
X0137479Y0005519D01*
X0137340Y0005442D01*
X0137199Y0005370D01*
X0137057Y0005300D01*
X0136913Y0005235D01*
X0136767Y0005173D01*
X0136620Y0005115D01*
X0136471Y0005060D01*
X0136321Y0005009D01*
X0136170Y0004962D01*
X0136018Y0004919D01*
X0135865Y0004880D01*
X0135710Y0004844D01*
X0135555Y0004813D01*
X0135399Y0004785D01*
X0135243Y0004761D01*
X0135086Y0004741D01*
X0134928Y0004725D01*
X0134771Y0004713D01*
X0134612Y0004705D01*
X0134454Y0004701D01*
X0134296Y0004701D01*
X0134138Y0004705D01*
X0133979Y0004713D01*
X0133822Y0004725D01*
X0133664Y0004741D01*
X0133507Y0004761D01*
X0133351Y0004785D01*
X0133195Y0004813D01*
X0133040Y0004844D01*
X0132885Y0004880D01*
X0132732Y0004919D01*
X0132580Y0004962D01*
X0132429Y0005009D01*
X0132279Y0005060D01*
X0132130Y0005115D01*
X0131983Y0005173D01*
X0131837Y0005235D01*
X0131693Y0005300D01*
X0131551Y0005370D01*
X0131410Y0005442D01*
X0131271Y0005519D01*
X0131135Y0005598D01*
X0131000Y0005682D01*
X0130867Y0005768D01*
X0130737Y0005858D01*
X0130609Y0005951D01*
X0130483Y0006047D01*
X0130360Y0006147D01*
X0130239Y0006249D01*
X0130121Y0006354D01*
X0130006Y0006463D01*
X0129893Y0006574D01*
X0129783Y0006688D01*
X0129676Y0006805D01*
X0129572Y0006924D01*
X0129471Y0007046D01*
X0129374Y0007171D01*
X0129279Y0007298D01*
X0129188Y0007427D01*
X0129099Y0007558D01*
X0129015Y0007692D01*
X0128933Y0007828D01*
X0128855Y0007965D01*
X0128781Y0008105D01*
X0128710Y0008247D01*
X0128642Y0008390D01*
X0128578Y0008535D01*
X0128518Y0008681D01*
X0128462Y0008829D01*
X0128409Y0008978D01*
X0128360Y0009129D01*
X0128315Y0009281D01*
X0128274Y0009434D01*
X0128236Y0009587D01*
X0128203Y0009742D01*
X0128173Y0009898D01*
X0128147Y0010054D01*
X0128126Y0010211D01*
X0128108Y0010368D01*
X0128094Y0010526D01*
X0128084Y0010684D01*
X0128078Y0010842D01*
X0128076Y0011000D01*
X0127938Y0226000D02*
X0127940Y0226125D01*
X0127946Y0226250D01*
X0127956Y0226374D01*
X0127970Y0226498D01*
X0127987Y0226622D01*
X0128009Y0226745D01*
X0128035Y0226867D01*
X0128064Y0226989D01*
X0128097Y0227109D01*
X0128135Y0227228D01*
X0128175Y0227347D01*
X0128220Y0227463D01*
X0128268Y0227578D01*
X0128320Y0227692D01*
X0128376Y0227804D01*
X0128435Y0227914D01*
X0128497Y0228022D01*
X0128563Y0228129D01*
X0128632Y0228233D01*
X0128705Y0228334D01*
X0128780Y0228434D01*
X0128859Y0228531D01*
X0128941Y0228625D01*
X0129026Y0228717D01*
X0129113Y0228806D01*
X0129204Y0228892D01*
X0129297Y0228975D01*
X0129393Y0229056D01*
X0129491Y0229133D01*
X0129591Y0229207D01*
X0129694Y0229278D01*
X0129799Y0229345D01*
X0129907Y0229410D01*
X0130016Y0229470D01*
X0130127Y0229528D01*
X0130240Y0229581D01*
X0130354Y0229631D01*
X0130470Y0229678D01*
X0130587Y0229720D01*
X0130706Y0229759D01*
X0130826Y0229795D01*
X0130947Y0229826D01*
X0131069Y0229854D01*
X0131191Y0229877D01*
X0131315Y0229897D01*
X0131439Y0229913D01*
X0131563Y0229925D01*
X0131688Y0229933D01*
X0131813Y0229937D01*
X0131937Y0229937D01*
X0132062Y0229933D01*
X0132187Y0229925D01*
X0132311Y0229913D01*
X0132435Y0229897D01*
X0132559Y0229877D01*
X0132681Y0229854D01*
X0132803Y0229826D01*
X0132924Y0229795D01*
X0133044Y0229759D01*
X0133163Y0229720D01*
X0133280Y0229678D01*
X0133396Y0229631D01*
X0133510Y0229581D01*
X0133623Y0229528D01*
X0133734Y0229470D01*
X0133844Y0229410D01*
X0133951Y0229345D01*
X0134056Y0229278D01*
X0134159Y0229207D01*
X0134259Y0229133D01*
X0134357Y0229056D01*
X0134453Y0228975D01*
X0134546Y0228892D01*
X0134637Y0228806D01*
X0134724Y0228717D01*
X0134809Y0228625D01*
X0134891Y0228531D01*
X0134970Y0228434D01*
X0135045Y0228334D01*
X0135118Y0228233D01*
X0135187Y0228129D01*
X0135253Y0228022D01*
X0135315Y0227914D01*
X0135374Y0227804D01*
X0135430Y0227692D01*
X0135482Y0227578D01*
X0135530Y0227463D01*
X0135575Y0227347D01*
X0135615Y0227228D01*
X0135653Y0227109D01*
X0135686Y0226989D01*
X0135715Y0226867D01*
X0135741Y0226745D01*
X0135763Y0226622D01*
X0135780Y0226498D01*
X0135794Y0226374D01*
X0135804Y0226250D01*
X0135810Y0226125D01*
X0135812Y0226000D01*
X0135810Y0225875D01*
X0135804Y0225750D01*
X0135794Y0225626D01*
X0135780Y0225502D01*
X0135763Y0225378D01*
X0135741Y0225255D01*
X0135715Y0225133D01*
X0135686Y0225011D01*
X0135653Y0224891D01*
X0135615Y0224772D01*
X0135575Y0224653D01*
X0135530Y0224537D01*
X0135482Y0224422D01*
X0135430Y0224308D01*
X0135374Y0224196D01*
X0135315Y0224086D01*
X0135253Y0223978D01*
X0135187Y0223871D01*
X0135118Y0223767D01*
X0135045Y0223666D01*
X0134970Y0223566D01*
X0134891Y0223469D01*
X0134809Y0223375D01*
X0134724Y0223283D01*
X0134637Y0223194D01*
X0134546Y0223108D01*
X0134453Y0223025D01*
X0134357Y0222944D01*
X0134259Y0222867D01*
X0134159Y0222793D01*
X0134056Y0222722D01*
X0133951Y0222655D01*
X0133843Y0222590D01*
X0133734Y0222530D01*
X0133623Y0222472D01*
X0133510Y0222419D01*
X0133396Y0222369D01*
X0133280Y0222322D01*
X0133163Y0222280D01*
X0133044Y0222241D01*
X0132924Y0222205D01*
X0132803Y0222174D01*
X0132681Y0222146D01*
X0132559Y0222123D01*
X0132435Y0222103D01*
X0132311Y0222087D01*
X0132187Y0222075D01*
X0132062Y0222067D01*
X0131937Y0222063D01*
X0131813Y0222063D01*
X0131688Y0222067D01*
X0131563Y0222075D01*
X0131439Y0222087D01*
X0131315Y0222103D01*
X0131191Y0222123D01*
X0131069Y0222146D01*
X0130947Y0222174D01*
X0130826Y0222205D01*
X0130706Y0222241D01*
X0130587Y0222280D01*
X0130470Y0222322D01*
X0130354Y0222369D01*
X0130240Y0222419D01*
X0130127Y0222472D01*
X0130016Y0222530D01*
X0129906Y0222590D01*
X0129799Y0222655D01*
X0129694Y0222722D01*
X0129591Y0222793D01*
X0129491Y0222867D01*
X0129393Y0222944D01*
X0129297Y0223025D01*
X0129204Y0223108D01*
X0129113Y0223194D01*
X0129026Y0223283D01*
X0128941Y0223375D01*
X0128859Y0223469D01*
X0128780Y0223566D01*
X0128705Y0223666D01*
X0128632Y0223767D01*
X0128563Y0223871D01*
X0128497Y0223978D01*
X0128435Y0224086D01*
X0128376Y0224196D01*
X0128320Y0224308D01*
X0128268Y0224422D01*
X0128220Y0224537D01*
X0128175Y0224653D01*
X0128135Y0224772D01*
X0128097Y0224891D01*
X0128064Y0225011D01*
X0128035Y0225133D01*
X0128009Y0225255D01*
X0127987Y0225378D01*
X0127970Y0225502D01*
X0127956Y0225626D01*
X0127946Y0225750D01*
X0127940Y0225875D01*
X0127938Y0226000D01*
X0125891Y0233500D02*
X0125893Y0233562D01*
X0125899Y0233625D01*
X0125909Y0233686D01*
X0125923Y0233747D01*
X0125940Y0233807D01*
X0125961Y0233866D01*
X0125987Y0233923D01*
X0126015Y0233978D01*
X0126047Y0234032D01*
X0126083Y0234083D01*
X0126121Y0234133D01*
X0126163Y0234179D01*
X0126207Y0234223D01*
X0126255Y0234264D01*
X0126304Y0234302D01*
X0126356Y0234336D01*
X0126410Y0234367D01*
X0126466Y0234395D01*
X0126524Y0234419D01*
X0126583Y0234440D01*
X0126643Y0234456D01*
X0126704Y0234469D01*
X0126766Y0234478D01*
X0126828Y0234483D01*
X0126891Y0234484D01*
X0126953Y0234481D01*
X0127015Y0234474D01*
X0127077Y0234463D01*
X0127137Y0234448D01*
X0127197Y0234430D01*
X0127255Y0234408D01*
X0127312Y0234382D01*
X0127367Y0234352D01*
X0127420Y0234319D01*
X0127471Y0234283D01*
X0127519Y0234244D01*
X0127565Y0234201D01*
X0127608Y0234156D01*
X0127648Y0234108D01*
X0127685Y0234058D01*
X0127719Y0234005D01*
X0127750Y0233951D01*
X0127776Y0233895D01*
X0127800Y0233837D01*
X0127819Y0233777D01*
X0127835Y0233717D01*
X0127847Y0233655D01*
X0127855Y0233594D01*
X0127859Y0233531D01*
X0127859Y0233469D01*
X0127855Y0233406D01*
X0127847Y0233345D01*
X0127835Y0233283D01*
X0127819Y0233223D01*
X0127800Y0233163D01*
X0127776Y0233105D01*
X0127750Y0233049D01*
X0127719Y0232995D01*
X0127685Y0232942D01*
X0127648Y0232892D01*
X0127608Y0232844D01*
X0127565Y0232799D01*
X0127519Y0232756D01*
X0127471Y0232717D01*
X0127420Y0232681D01*
X0127367Y0232648D01*
X0127312Y0232618D01*
X0127255Y0232592D01*
X0127197Y0232570D01*
X0127137Y0232552D01*
X0127077Y0232537D01*
X0127015Y0232526D01*
X0126953Y0232519D01*
X0126891Y0232516D01*
X0126828Y0232517D01*
X0126766Y0232522D01*
X0126704Y0232531D01*
X0126643Y0232544D01*
X0126583Y0232560D01*
X0126524Y0232581D01*
X0126466Y0232605D01*
X0126410Y0232633D01*
X0126356Y0232664D01*
X0126304Y0232698D01*
X0126255Y0232736D01*
X0126207Y0232777D01*
X0126163Y0232821D01*
X0126121Y0232867D01*
X0126083Y0232917D01*
X0126047Y0232968D01*
X0126015Y0233022D01*
X0125987Y0233077D01*
X0125961Y0233134D01*
X0125940Y0233193D01*
X0125923Y0233253D01*
X0125909Y0233314D01*
X0125899Y0233375D01*
X0125893Y0233438D01*
X0125891Y0233500D01*
X0122766Y0233500D02*
X0122768Y0233562D01*
X0122774Y0233625D01*
X0122784Y0233686D01*
X0122798Y0233747D01*
X0122815Y0233807D01*
X0122836Y0233866D01*
X0122862Y0233923D01*
X0122890Y0233978D01*
X0122922Y0234032D01*
X0122958Y0234083D01*
X0122996Y0234133D01*
X0123038Y0234179D01*
X0123082Y0234223D01*
X0123130Y0234264D01*
X0123179Y0234302D01*
X0123231Y0234336D01*
X0123285Y0234367D01*
X0123341Y0234395D01*
X0123399Y0234419D01*
X0123458Y0234440D01*
X0123518Y0234456D01*
X0123579Y0234469D01*
X0123641Y0234478D01*
X0123703Y0234483D01*
X0123766Y0234484D01*
X0123828Y0234481D01*
X0123890Y0234474D01*
X0123952Y0234463D01*
X0124012Y0234448D01*
X0124072Y0234430D01*
X0124130Y0234408D01*
X0124187Y0234382D01*
X0124242Y0234352D01*
X0124295Y0234319D01*
X0124346Y0234283D01*
X0124394Y0234244D01*
X0124440Y0234201D01*
X0124483Y0234156D01*
X0124523Y0234108D01*
X0124560Y0234058D01*
X0124594Y0234005D01*
X0124625Y0233951D01*
X0124651Y0233895D01*
X0124675Y0233837D01*
X0124694Y0233777D01*
X0124710Y0233717D01*
X0124722Y0233655D01*
X0124730Y0233594D01*
X0124734Y0233531D01*
X0124734Y0233469D01*
X0124730Y0233406D01*
X0124722Y0233345D01*
X0124710Y0233283D01*
X0124694Y0233223D01*
X0124675Y0233163D01*
X0124651Y0233105D01*
X0124625Y0233049D01*
X0124594Y0232995D01*
X0124560Y0232942D01*
X0124523Y0232892D01*
X0124483Y0232844D01*
X0124440Y0232799D01*
X0124394Y0232756D01*
X0124346Y0232717D01*
X0124295Y0232681D01*
X0124242Y0232648D01*
X0124187Y0232618D01*
X0124130Y0232592D01*
X0124072Y0232570D01*
X0124012Y0232552D01*
X0123952Y0232537D01*
X0123890Y0232526D01*
X0123828Y0232519D01*
X0123766Y0232516D01*
X0123703Y0232517D01*
X0123641Y0232522D01*
X0123579Y0232531D01*
X0123518Y0232544D01*
X0123458Y0232560D01*
X0123399Y0232581D01*
X0123341Y0232605D01*
X0123285Y0232633D01*
X0123231Y0232664D01*
X0123179Y0232698D01*
X0123130Y0232736D01*
X0123082Y0232777D01*
X0123038Y0232821D01*
X0122996Y0232867D01*
X0122958Y0232917D01*
X0122922Y0232968D01*
X0122890Y0233022D01*
X0122862Y0233077D01*
X0122836Y0233134D01*
X0122815Y0233193D01*
X0122798Y0233253D01*
X0122784Y0233314D01*
X0122774Y0233375D01*
X0122768Y0233438D01*
X0122766Y0233500D01*
X0121875Y0232250D02*
X0121875Y0241000D01*
X0071875Y0241000D01*
X0071875Y0232250D01*
X0121875Y0232250D01*
X0122766Y0236625D02*
X0122768Y0236687D01*
X0122774Y0236750D01*
X0122784Y0236811D01*
X0122798Y0236872D01*
X0122815Y0236932D01*
X0122836Y0236991D01*
X0122862Y0237048D01*
X0122890Y0237103D01*
X0122922Y0237157D01*
X0122958Y0237208D01*
X0122996Y0237258D01*
X0123038Y0237304D01*
X0123082Y0237348D01*
X0123130Y0237389D01*
X0123179Y0237427D01*
X0123231Y0237461D01*
X0123285Y0237492D01*
X0123341Y0237520D01*
X0123399Y0237544D01*
X0123458Y0237565D01*
X0123518Y0237581D01*
X0123579Y0237594D01*
X0123641Y0237603D01*
X0123703Y0237608D01*
X0123766Y0237609D01*
X0123828Y0237606D01*
X0123890Y0237599D01*
X0123952Y0237588D01*
X0124012Y0237573D01*
X0124072Y0237555D01*
X0124130Y0237533D01*
X0124187Y0237507D01*
X0124242Y0237477D01*
X0124295Y0237444D01*
X0124346Y0237408D01*
X0124394Y0237369D01*
X0124440Y0237326D01*
X0124483Y0237281D01*
X0124523Y0237233D01*
X0124560Y0237183D01*
X0124594Y0237130D01*
X0124625Y0237076D01*
X0124651Y0237020D01*
X0124675Y0236962D01*
X0124694Y0236902D01*
X0124710Y0236842D01*
X0124722Y0236780D01*
X0124730Y0236719D01*
X0124734Y0236656D01*
X0124734Y0236594D01*
X0124730Y0236531D01*
X0124722Y0236470D01*
X0124710Y0236408D01*
X0124694Y0236348D01*
X0124675Y0236288D01*
X0124651Y0236230D01*
X0124625Y0236174D01*
X0124594Y0236120D01*
X0124560Y0236067D01*
X0124523Y0236017D01*
X0124483Y0235969D01*
X0124440Y0235924D01*
X0124394Y0235881D01*
X0124346Y0235842D01*
X0124295Y0235806D01*
X0124242Y0235773D01*
X0124187Y0235743D01*
X0124130Y0235717D01*
X0124072Y0235695D01*
X0124012Y0235677D01*
X0123952Y0235662D01*
X0123890Y0235651D01*
X0123828Y0235644D01*
X0123766Y0235641D01*
X0123703Y0235642D01*
X0123641Y0235647D01*
X0123579Y0235656D01*
X0123518Y0235669D01*
X0123458Y0235685D01*
X0123399Y0235706D01*
X0123341Y0235730D01*
X0123285Y0235758D01*
X0123231Y0235789D01*
X0123179Y0235823D01*
X0123130Y0235861D01*
X0123082Y0235902D01*
X0123038Y0235946D01*
X0122996Y0235992D01*
X0122958Y0236042D01*
X0122922Y0236093D01*
X0122890Y0236147D01*
X0122862Y0236202D01*
X0122836Y0236259D01*
X0122815Y0236318D01*
X0122798Y0236378D01*
X0122784Y0236439D01*
X0122774Y0236500D01*
X0122768Y0236563D01*
X0122766Y0236625D01*
X0122766Y0239750D02*
X0122768Y0239812D01*
X0122774Y0239875D01*
X0122784Y0239936D01*
X0122798Y0239997D01*
X0122815Y0240057D01*
X0122836Y0240116D01*
X0122862Y0240173D01*
X0122890Y0240228D01*
X0122922Y0240282D01*
X0122958Y0240333D01*
X0122996Y0240383D01*
X0123038Y0240429D01*
X0123082Y0240473D01*
X0123130Y0240514D01*
X0123179Y0240552D01*
X0123231Y0240586D01*
X0123285Y0240617D01*
X0123341Y0240645D01*
X0123399Y0240669D01*
X0123458Y0240690D01*
X0123518Y0240706D01*
X0123579Y0240719D01*
X0123641Y0240728D01*
X0123703Y0240733D01*
X0123766Y0240734D01*
X0123828Y0240731D01*
X0123890Y0240724D01*
X0123952Y0240713D01*
X0124012Y0240698D01*
X0124072Y0240680D01*
X0124130Y0240658D01*
X0124187Y0240632D01*
X0124242Y0240602D01*
X0124295Y0240569D01*
X0124346Y0240533D01*
X0124394Y0240494D01*
X0124440Y0240451D01*
X0124483Y0240406D01*
X0124523Y0240358D01*
X0124560Y0240308D01*
X0124594Y0240255D01*
X0124625Y0240201D01*
X0124651Y0240145D01*
X0124675Y0240087D01*
X0124694Y0240027D01*
X0124710Y0239967D01*
X0124722Y0239905D01*
X0124730Y0239844D01*
X0124734Y0239781D01*
X0124734Y0239719D01*
X0124730Y0239656D01*
X0124722Y0239595D01*
X0124710Y0239533D01*
X0124694Y0239473D01*
X0124675Y0239413D01*
X0124651Y0239355D01*
X0124625Y0239299D01*
X0124594Y0239245D01*
X0124560Y0239192D01*
X0124523Y0239142D01*
X0124483Y0239094D01*
X0124440Y0239049D01*
X0124394Y0239006D01*
X0124346Y0238967D01*
X0124295Y0238931D01*
X0124242Y0238898D01*
X0124187Y0238868D01*
X0124130Y0238842D01*
X0124072Y0238820D01*
X0124012Y0238802D01*
X0123952Y0238787D01*
X0123890Y0238776D01*
X0123828Y0238769D01*
X0123766Y0238766D01*
X0123703Y0238767D01*
X0123641Y0238772D01*
X0123579Y0238781D01*
X0123518Y0238794D01*
X0123458Y0238810D01*
X0123399Y0238831D01*
X0123341Y0238855D01*
X0123285Y0238883D01*
X0123231Y0238914D01*
X0123179Y0238948D01*
X0123130Y0238986D01*
X0123082Y0239027D01*
X0123038Y0239071D01*
X0122996Y0239117D01*
X0122958Y0239167D01*
X0122922Y0239218D01*
X0122890Y0239272D01*
X0122862Y0239327D01*
X0122836Y0239384D01*
X0122815Y0239443D01*
X0122798Y0239503D01*
X0122784Y0239564D01*
X0122774Y0239625D01*
X0122768Y0239688D01*
X0122766Y0239750D01*
X0125891Y0239750D02*
X0125893Y0239812D01*
X0125899Y0239875D01*
X0125909Y0239936D01*
X0125923Y0239997D01*
X0125940Y0240057D01*
X0125961Y0240116D01*
X0125987Y0240173D01*
X0126015Y0240228D01*
X0126047Y0240282D01*
X0126083Y0240333D01*
X0126121Y0240383D01*
X0126163Y0240429D01*
X0126207Y0240473D01*
X0126255Y0240514D01*
X0126304Y0240552D01*
X0126356Y0240586D01*
X0126410Y0240617D01*
X0126466Y0240645D01*
X0126524Y0240669D01*
X0126583Y0240690D01*
X0126643Y0240706D01*
X0126704Y0240719D01*
X0126766Y0240728D01*
X0126828Y0240733D01*
X0126891Y0240734D01*
X0126953Y0240731D01*
X0127015Y0240724D01*
X0127077Y0240713D01*
X0127137Y0240698D01*
X0127197Y0240680D01*
X0127255Y0240658D01*
X0127312Y0240632D01*
X0127367Y0240602D01*
X0127420Y0240569D01*
X0127471Y0240533D01*
X0127519Y0240494D01*
X0127565Y0240451D01*
X0127608Y0240406D01*
X0127648Y0240358D01*
X0127685Y0240308D01*
X0127719Y0240255D01*
X0127750Y0240201D01*
X0127776Y0240145D01*
X0127800Y0240087D01*
X0127819Y0240027D01*
X0127835Y0239967D01*
X0127847Y0239905D01*
X0127855Y0239844D01*
X0127859Y0239781D01*
X0127859Y0239719D01*
X0127855Y0239656D01*
X0127847Y0239595D01*
X0127835Y0239533D01*
X0127819Y0239473D01*
X0127800Y0239413D01*
X0127776Y0239355D01*
X0127750Y0239299D01*
X0127719Y0239245D01*
X0127685Y0239192D01*
X0127648Y0239142D01*
X0127608Y0239094D01*
X0127565Y0239049D01*
X0127519Y0239006D01*
X0127471Y0238967D01*
X0127420Y0238931D01*
X0127367Y0238898D01*
X0127312Y0238868D01*
X0127255Y0238842D01*
X0127197Y0238820D01*
X0127137Y0238802D01*
X0127077Y0238787D01*
X0127015Y0238776D01*
X0126953Y0238769D01*
X0126891Y0238766D01*
X0126828Y0238767D01*
X0126766Y0238772D01*
X0126704Y0238781D01*
X0126643Y0238794D01*
X0126583Y0238810D01*
X0126524Y0238831D01*
X0126466Y0238855D01*
X0126410Y0238883D01*
X0126356Y0238914D01*
X0126304Y0238948D01*
X0126255Y0238986D01*
X0126207Y0239027D01*
X0126163Y0239071D01*
X0126121Y0239117D01*
X0126083Y0239167D01*
X0126047Y0239218D01*
X0126015Y0239272D01*
X0125987Y0239327D01*
X0125961Y0239384D01*
X0125940Y0239443D01*
X0125923Y0239503D01*
X0125909Y0239564D01*
X0125899Y0239625D01*
X0125893Y0239688D01*
X0125891Y0239750D01*
X0125891Y0236625D02*
X0125893Y0236687D01*
X0125899Y0236750D01*
X0125909Y0236811D01*
X0125923Y0236872D01*
X0125940Y0236932D01*
X0125961Y0236991D01*
X0125987Y0237048D01*
X0126015Y0237103D01*
X0126047Y0237157D01*
X0126083Y0237208D01*
X0126121Y0237258D01*
X0126163Y0237304D01*
X0126207Y0237348D01*
X0126255Y0237389D01*
X0126304Y0237427D01*
X0126356Y0237461D01*
X0126410Y0237492D01*
X0126466Y0237520D01*
X0126524Y0237544D01*
X0126583Y0237565D01*
X0126643Y0237581D01*
X0126704Y0237594D01*
X0126766Y0237603D01*
X0126828Y0237608D01*
X0126891Y0237609D01*
X0126953Y0237606D01*
X0127015Y0237599D01*
X0127077Y0237588D01*
X0127137Y0237573D01*
X0127197Y0237555D01*
X0127255Y0237533D01*
X0127312Y0237507D01*
X0127367Y0237477D01*
X0127420Y0237444D01*
X0127471Y0237408D01*
X0127519Y0237369D01*
X0127565Y0237326D01*
X0127608Y0237281D01*
X0127648Y0237233D01*
X0127685Y0237183D01*
X0127719Y0237130D01*
X0127750Y0237076D01*
X0127776Y0237020D01*
X0127800Y0236962D01*
X0127819Y0236902D01*
X0127835Y0236842D01*
X0127847Y0236780D01*
X0127855Y0236719D01*
X0127859Y0236656D01*
X0127859Y0236594D01*
X0127855Y0236531D01*
X0127847Y0236470D01*
X0127835Y0236408D01*
X0127819Y0236348D01*
X0127800Y0236288D01*
X0127776Y0236230D01*
X0127750Y0236174D01*
X0127719Y0236120D01*
X0127685Y0236067D01*
X0127648Y0236017D01*
X0127608Y0235969D01*
X0127565Y0235924D01*
X0127519Y0235881D01*
X0127471Y0235842D01*
X0127420Y0235806D01*
X0127367Y0235773D01*
X0127312Y0235743D01*
X0127255Y0235717D01*
X0127197Y0235695D01*
X0127137Y0235677D01*
X0127077Y0235662D01*
X0127015Y0235651D01*
X0126953Y0235644D01*
X0126891Y0235641D01*
X0126828Y0235642D01*
X0126766Y0235647D01*
X0126704Y0235656D01*
X0126643Y0235669D01*
X0126583Y0235685D01*
X0126524Y0235706D01*
X0126466Y0235730D01*
X0126410Y0235758D01*
X0126356Y0235789D01*
X0126304Y0235823D01*
X0126255Y0235861D01*
X0126207Y0235902D01*
X0126163Y0235946D01*
X0126121Y0235992D01*
X0126083Y0236042D01*
X0126047Y0236093D01*
X0126015Y0236147D01*
X0125987Y0236202D01*
X0125961Y0236259D01*
X0125940Y0236318D01*
X0125923Y0236378D01*
X0125909Y0236439D01*
X0125899Y0236500D01*
X0125893Y0236563D01*
X0125891Y0236625D01*
X0129016Y0236625D02*
X0129018Y0236687D01*
X0129024Y0236750D01*
X0129034Y0236811D01*
X0129048Y0236872D01*
X0129065Y0236932D01*
X0129086Y0236991D01*
X0129112Y0237048D01*
X0129140Y0237103D01*
X0129172Y0237157D01*
X0129208Y0237208D01*
X0129246Y0237258D01*
X0129288Y0237304D01*
X0129332Y0237348D01*
X0129380Y0237389D01*
X0129429Y0237427D01*
X0129481Y0237461D01*
X0129535Y0237492D01*
X0129591Y0237520D01*
X0129649Y0237544D01*
X0129708Y0237565D01*
X0129768Y0237581D01*
X0129829Y0237594D01*
X0129891Y0237603D01*
X0129953Y0237608D01*
X0130016Y0237609D01*
X0130078Y0237606D01*
X0130140Y0237599D01*
X0130202Y0237588D01*
X0130262Y0237573D01*
X0130322Y0237555D01*
X0130380Y0237533D01*
X0130437Y0237507D01*
X0130492Y0237477D01*
X0130545Y0237444D01*
X0130596Y0237408D01*
X0130644Y0237369D01*
X0130690Y0237326D01*
X0130733Y0237281D01*
X0130773Y0237233D01*
X0130810Y0237183D01*
X0130844Y0237130D01*
X0130875Y0237076D01*
X0130901Y0237020D01*
X0130925Y0236962D01*
X0130944Y0236902D01*
X0130960Y0236842D01*
X0130972Y0236780D01*
X0130980Y0236719D01*
X0130984Y0236656D01*
X0130984Y0236594D01*
X0130980Y0236531D01*
X0130972Y0236470D01*
X0130960Y0236408D01*
X0130944Y0236348D01*
X0130925Y0236288D01*
X0130901Y0236230D01*
X0130875Y0236174D01*
X0130844Y0236120D01*
X0130810Y0236067D01*
X0130773Y0236017D01*
X0130733Y0235969D01*
X0130690Y0235924D01*
X0130644Y0235881D01*
X0130596Y0235842D01*
X0130545Y0235806D01*
X0130492Y0235773D01*
X0130437Y0235743D01*
X0130380Y0235717D01*
X0130322Y0235695D01*
X0130262Y0235677D01*
X0130202Y0235662D01*
X0130140Y0235651D01*
X0130078Y0235644D01*
X0130016Y0235641D01*
X0129953Y0235642D01*
X0129891Y0235647D01*
X0129829Y0235656D01*
X0129768Y0235669D01*
X0129708Y0235685D01*
X0129649Y0235706D01*
X0129591Y0235730D01*
X0129535Y0235758D01*
X0129481Y0235789D01*
X0129429Y0235823D01*
X0129380Y0235861D01*
X0129332Y0235902D01*
X0129288Y0235946D01*
X0129246Y0235992D01*
X0129208Y0236042D01*
X0129172Y0236093D01*
X0129140Y0236147D01*
X0129112Y0236202D01*
X0129086Y0236259D01*
X0129065Y0236318D01*
X0129048Y0236378D01*
X0129034Y0236439D01*
X0129024Y0236500D01*
X0129018Y0236563D01*
X0129016Y0236625D01*
X0129016Y0233500D02*
X0129018Y0233562D01*
X0129024Y0233625D01*
X0129034Y0233686D01*
X0129048Y0233747D01*
X0129065Y0233807D01*
X0129086Y0233866D01*
X0129112Y0233923D01*
X0129140Y0233978D01*
X0129172Y0234032D01*
X0129208Y0234083D01*
X0129246Y0234133D01*
X0129288Y0234179D01*
X0129332Y0234223D01*
X0129380Y0234264D01*
X0129429Y0234302D01*
X0129481Y0234336D01*
X0129535Y0234367D01*
X0129591Y0234395D01*
X0129649Y0234419D01*
X0129708Y0234440D01*
X0129768Y0234456D01*
X0129829Y0234469D01*
X0129891Y0234478D01*
X0129953Y0234483D01*
X0130016Y0234484D01*
X0130078Y0234481D01*
X0130140Y0234474D01*
X0130202Y0234463D01*
X0130262Y0234448D01*
X0130322Y0234430D01*
X0130380Y0234408D01*
X0130437Y0234382D01*
X0130492Y0234352D01*
X0130545Y0234319D01*
X0130596Y0234283D01*
X0130644Y0234244D01*
X0130690Y0234201D01*
X0130733Y0234156D01*
X0130773Y0234108D01*
X0130810Y0234058D01*
X0130844Y0234005D01*
X0130875Y0233951D01*
X0130901Y0233895D01*
X0130925Y0233837D01*
X0130944Y0233777D01*
X0130960Y0233717D01*
X0130972Y0233655D01*
X0130980Y0233594D01*
X0130984Y0233531D01*
X0130984Y0233469D01*
X0130980Y0233406D01*
X0130972Y0233345D01*
X0130960Y0233283D01*
X0130944Y0233223D01*
X0130925Y0233163D01*
X0130901Y0233105D01*
X0130875Y0233049D01*
X0130844Y0232995D01*
X0130810Y0232942D01*
X0130773Y0232892D01*
X0130733Y0232844D01*
X0130690Y0232799D01*
X0130644Y0232756D01*
X0130596Y0232717D01*
X0130545Y0232681D01*
X0130492Y0232648D01*
X0130437Y0232618D01*
X0130380Y0232592D01*
X0130322Y0232570D01*
X0130262Y0232552D01*
X0130202Y0232537D01*
X0130140Y0232526D01*
X0130078Y0232519D01*
X0130016Y0232516D01*
X0129953Y0232517D01*
X0129891Y0232522D01*
X0129829Y0232531D01*
X0129768Y0232544D01*
X0129708Y0232560D01*
X0129649Y0232581D01*
X0129591Y0232605D01*
X0129535Y0232633D01*
X0129481Y0232664D01*
X0129429Y0232698D01*
X0129380Y0232736D01*
X0129332Y0232777D01*
X0129288Y0232821D01*
X0129246Y0232867D01*
X0129208Y0232917D01*
X0129172Y0232968D01*
X0129140Y0233022D01*
X0129112Y0233077D01*
X0129086Y0233134D01*
X0129065Y0233193D01*
X0129048Y0233253D01*
X0129034Y0233314D01*
X0129024Y0233375D01*
X0129018Y0233438D01*
X0129016Y0233500D01*
X0129016Y0239750D02*
X0129018Y0239812D01*
X0129024Y0239875D01*
X0129034Y0239936D01*
X0129048Y0239997D01*
X0129065Y0240057D01*
X0129086Y0240116D01*
X0129112Y0240173D01*
X0129140Y0240228D01*
X0129172Y0240282D01*
X0129208Y0240333D01*
X0129246Y0240383D01*
X0129288Y0240429D01*
X0129332Y0240473D01*
X0129380Y0240514D01*
X0129429Y0240552D01*
X0129481Y0240586D01*
X0129535Y0240617D01*
X0129591Y0240645D01*
X0129649Y0240669D01*
X0129708Y0240690D01*
X0129768Y0240706D01*
X0129829Y0240719D01*
X0129891Y0240728D01*
X0129953Y0240733D01*
X0130016Y0240734D01*
X0130078Y0240731D01*
X0130140Y0240724D01*
X0130202Y0240713D01*
X0130262Y0240698D01*
X0130322Y0240680D01*
X0130380Y0240658D01*
X0130437Y0240632D01*
X0130492Y0240602D01*
X0130545Y0240569D01*
X0130596Y0240533D01*
X0130644Y0240494D01*
X0130690Y0240451D01*
X0130733Y0240406D01*
X0130773Y0240358D01*
X0130810Y0240308D01*
X0130844Y0240255D01*
X0130875Y0240201D01*
X0130901Y0240145D01*
X0130925Y0240087D01*
X0130944Y0240027D01*
X0130960Y0239967D01*
X0130972Y0239905D01*
X0130980Y0239844D01*
X0130984Y0239781D01*
X0130984Y0239719D01*
X0130980Y0239656D01*
X0130972Y0239595D01*
X0130960Y0239533D01*
X0130944Y0239473D01*
X0130925Y0239413D01*
X0130901Y0239355D01*
X0130875Y0239299D01*
X0130844Y0239245D01*
X0130810Y0239192D01*
X0130773Y0239142D01*
X0130733Y0239094D01*
X0130690Y0239049D01*
X0130644Y0239006D01*
X0130596Y0238967D01*
X0130545Y0238931D01*
X0130492Y0238898D01*
X0130437Y0238868D01*
X0130380Y0238842D01*
X0130322Y0238820D01*
X0130262Y0238802D01*
X0130202Y0238787D01*
X0130140Y0238776D01*
X0130078Y0238769D01*
X0130016Y0238766D01*
X0129953Y0238767D01*
X0129891Y0238772D01*
X0129829Y0238781D01*
X0129768Y0238794D01*
X0129708Y0238810D01*
X0129649Y0238831D01*
X0129591Y0238855D01*
X0129535Y0238883D01*
X0129481Y0238914D01*
X0129429Y0238948D01*
X0129380Y0238986D01*
X0129332Y0239027D01*
X0129288Y0239071D01*
X0129246Y0239117D01*
X0129208Y0239167D01*
X0129172Y0239218D01*
X0129140Y0239272D01*
X0129112Y0239327D01*
X0129086Y0239384D01*
X0129065Y0239443D01*
X0129048Y0239503D01*
X0129034Y0239564D01*
X0129024Y0239625D01*
X0129018Y0239688D01*
X0129016Y0239750D01*
X0128076Y0251000D02*
X0128078Y0251158D01*
X0128084Y0251316D01*
X0128094Y0251474D01*
X0128108Y0251632D01*
X0128126Y0251789D01*
X0128147Y0251946D01*
X0128173Y0252102D01*
X0128203Y0252258D01*
X0128236Y0252413D01*
X0128274Y0252566D01*
X0128315Y0252719D01*
X0128360Y0252871D01*
X0128409Y0253022D01*
X0128462Y0253171D01*
X0128518Y0253319D01*
X0128578Y0253465D01*
X0128642Y0253610D01*
X0128710Y0253753D01*
X0128781Y0253895D01*
X0128855Y0254035D01*
X0128933Y0254172D01*
X0129015Y0254308D01*
X0129099Y0254442D01*
X0129188Y0254573D01*
X0129279Y0254702D01*
X0129374Y0254829D01*
X0129471Y0254954D01*
X0129572Y0255076D01*
X0129676Y0255195D01*
X0129783Y0255312D01*
X0129893Y0255426D01*
X0130006Y0255537D01*
X0130121Y0255646D01*
X0130239Y0255751D01*
X0130360Y0255853D01*
X0130483Y0255953D01*
X0130609Y0256049D01*
X0130737Y0256142D01*
X0130867Y0256232D01*
X0131000Y0256318D01*
X0131135Y0256402D01*
X0131271Y0256481D01*
X0131410Y0256558D01*
X0131551Y0256630D01*
X0131693Y0256700D01*
X0131837Y0256765D01*
X0131983Y0256827D01*
X0132130Y0256885D01*
X0132279Y0256940D01*
X0132429Y0256991D01*
X0132580Y0257038D01*
X0132732Y0257081D01*
X0132885Y0257120D01*
X0133040Y0257156D01*
X0133195Y0257187D01*
X0133351Y0257215D01*
X0133507Y0257239D01*
X0133664Y0257259D01*
X0133822Y0257275D01*
X0133979Y0257287D01*
X0134138Y0257295D01*
X0134296Y0257299D01*
X0134454Y0257299D01*
X0134612Y0257295D01*
X0134771Y0257287D01*
X0134928Y0257275D01*
X0135086Y0257259D01*
X0135243Y0257239D01*
X0135399Y0257215D01*
X0135555Y0257187D01*
X0135710Y0257156D01*
X0135865Y0257120D01*
X0136018Y0257081D01*
X0136170Y0257038D01*
X0136321Y0256991D01*
X0136471Y0256940D01*
X0136620Y0256885D01*
X0136767Y0256827D01*
X0136913Y0256765D01*
X0137057Y0256700D01*
X0137199Y0256630D01*
X0137340Y0256558D01*
X0137479Y0256481D01*
X0137615Y0256402D01*
X0137750Y0256318D01*
X0137883Y0256232D01*
X0138013Y0256142D01*
X0138141Y0256049D01*
X0138267Y0255953D01*
X0138390Y0255853D01*
X0138511Y0255751D01*
X0138629Y0255646D01*
X0138744Y0255537D01*
X0138857Y0255426D01*
X0138967Y0255312D01*
X0139074Y0255195D01*
X0139178Y0255076D01*
X0139279Y0254954D01*
X0139376Y0254829D01*
X0139471Y0254702D01*
X0139562Y0254573D01*
X0139651Y0254442D01*
X0139735Y0254308D01*
X0139817Y0254172D01*
X0139895Y0254035D01*
X0139969Y0253895D01*
X0140040Y0253753D01*
X0140108Y0253610D01*
X0140172Y0253465D01*
X0140232Y0253319D01*
X0140288Y0253171D01*
X0140341Y0253022D01*
X0140390Y0252871D01*
X0140435Y0252719D01*
X0140476Y0252566D01*
X0140514Y0252413D01*
X0140547Y0252258D01*
X0140577Y0252102D01*
X0140603Y0251946D01*
X0140624Y0251789D01*
X0140642Y0251632D01*
X0140656Y0251474D01*
X0140666Y0251316D01*
X0140672Y0251158D01*
X0140674Y0251000D01*
X0140672Y0250842D01*
X0140666Y0250684D01*
X0140656Y0250526D01*
X0140642Y0250368D01*
X0140624Y0250211D01*
X0140603Y0250054D01*
X0140577Y0249898D01*
X0140547Y0249742D01*
X0140514Y0249587D01*
X0140476Y0249434D01*
X0140435Y0249281D01*
X0140390Y0249129D01*
X0140341Y0248978D01*
X0140288Y0248829D01*
X0140232Y0248681D01*
X0140172Y0248535D01*
X0140108Y0248390D01*
X0140040Y0248247D01*
X0139969Y0248105D01*
X0139895Y0247965D01*
X0139817Y0247828D01*
X0139735Y0247692D01*
X0139651Y0247558D01*
X0139562Y0247427D01*
X0139471Y0247298D01*
X0139376Y0247171D01*
X0139279Y0247046D01*
X0139178Y0246924D01*
X0139074Y0246805D01*
X0138967Y0246688D01*
X0138857Y0246574D01*
X0138744Y0246463D01*
X0138629Y0246354D01*
X0138511Y0246249D01*
X0138390Y0246147D01*
X0138267Y0246047D01*
X0138141Y0245951D01*
X0138013Y0245858D01*
X0137883Y0245768D01*
X0137750Y0245682D01*
X0137615Y0245598D01*
X0137479Y0245519D01*
X0137340Y0245442D01*
X0137199Y0245370D01*
X0137057Y0245300D01*
X0136913Y0245235D01*
X0136767Y0245173D01*
X0136620Y0245115D01*
X0136471Y0245060D01*
X0136321Y0245009D01*
X0136170Y0244962D01*
X0136018Y0244919D01*
X0135865Y0244880D01*
X0135710Y0244844D01*
X0135555Y0244813D01*
X0135399Y0244785D01*
X0135243Y0244761D01*
X0135086Y0244741D01*
X0134928Y0244725D01*
X0134771Y0244713D01*
X0134612Y0244705D01*
X0134454Y0244701D01*
X0134296Y0244701D01*
X0134138Y0244705D01*
X0133979Y0244713D01*
X0133822Y0244725D01*
X0133664Y0244741D01*
X0133507Y0244761D01*
X0133351Y0244785D01*
X0133195Y0244813D01*
X0133040Y0244844D01*
X0132885Y0244880D01*
X0132732Y0244919D01*
X0132580Y0244962D01*
X0132429Y0245009D01*
X0132279Y0245060D01*
X0132130Y0245115D01*
X0131983Y0245173D01*
X0131837Y0245235D01*
X0131693Y0245300D01*
X0131551Y0245370D01*
X0131410Y0245442D01*
X0131271Y0245519D01*
X0131135Y0245598D01*
X0131000Y0245682D01*
X0130867Y0245768D01*
X0130737Y0245858D01*
X0130609Y0245951D01*
X0130483Y0246047D01*
X0130360Y0246147D01*
X0130239Y0246249D01*
X0130121Y0246354D01*
X0130006Y0246463D01*
X0129893Y0246574D01*
X0129783Y0246688D01*
X0129676Y0246805D01*
X0129572Y0246924D01*
X0129471Y0247046D01*
X0129374Y0247171D01*
X0129279Y0247298D01*
X0129188Y0247427D01*
X0129099Y0247558D01*
X0129015Y0247692D01*
X0128933Y0247828D01*
X0128855Y0247965D01*
X0128781Y0248105D01*
X0128710Y0248247D01*
X0128642Y0248390D01*
X0128578Y0248535D01*
X0128518Y0248681D01*
X0128462Y0248829D01*
X0128409Y0248978D01*
X0128360Y0249129D01*
X0128315Y0249281D01*
X0128274Y0249434D01*
X0128236Y0249587D01*
X0128203Y0249742D01*
X0128173Y0249898D01*
X0128147Y0250054D01*
X0128126Y0250211D01*
X0128108Y0250368D01*
X0128094Y0250526D01*
X0128084Y0250684D01*
X0128078Y0250842D01*
X0128076Y0251000D01*
X0137938Y0226000D02*
X0137940Y0226125D01*
X0137946Y0226250D01*
X0137956Y0226374D01*
X0137970Y0226498D01*
X0137987Y0226622D01*
X0138009Y0226745D01*
X0138035Y0226867D01*
X0138064Y0226989D01*
X0138097Y0227109D01*
X0138135Y0227228D01*
X0138175Y0227347D01*
X0138220Y0227463D01*
X0138268Y0227578D01*
X0138320Y0227692D01*
X0138376Y0227804D01*
X0138435Y0227914D01*
X0138497Y0228022D01*
X0138563Y0228129D01*
X0138632Y0228233D01*
X0138705Y0228334D01*
X0138780Y0228434D01*
X0138859Y0228531D01*
X0138941Y0228625D01*
X0139026Y0228717D01*
X0139113Y0228806D01*
X0139204Y0228892D01*
X0139297Y0228975D01*
X0139393Y0229056D01*
X0139491Y0229133D01*
X0139591Y0229207D01*
X0139694Y0229278D01*
X0139799Y0229345D01*
X0139907Y0229410D01*
X0140016Y0229470D01*
X0140127Y0229528D01*
X0140240Y0229581D01*
X0140354Y0229631D01*
X0140470Y0229678D01*
X0140587Y0229720D01*
X0140706Y0229759D01*
X0140826Y0229795D01*
X0140947Y0229826D01*
X0141069Y0229854D01*
X0141191Y0229877D01*
X0141315Y0229897D01*
X0141439Y0229913D01*
X0141563Y0229925D01*
X0141688Y0229933D01*
X0141813Y0229937D01*
X0141937Y0229937D01*
X0142062Y0229933D01*
X0142187Y0229925D01*
X0142311Y0229913D01*
X0142435Y0229897D01*
X0142559Y0229877D01*
X0142681Y0229854D01*
X0142803Y0229826D01*
X0142924Y0229795D01*
X0143044Y0229759D01*
X0143163Y0229720D01*
X0143280Y0229678D01*
X0143396Y0229631D01*
X0143510Y0229581D01*
X0143623Y0229528D01*
X0143734Y0229470D01*
X0143844Y0229410D01*
X0143951Y0229345D01*
X0144056Y0229278D01*
X0144159Y0229207D01*
X0144259Y0229133D01*
X0144357Y0229056D01*
X0144453Y0228975D01*
X0144546Y0228892D01*
X0144637Y0228806D01*
X0144724Y0228717D01*
X0144809Y0228625D01*
X0144891Y0228531D01*
X0144970Y0228434D01*
X0145045Y0228334D01*
X0145118Y0228233D01*
X0145187Y0228129D01*
X0145253Y0228022D01*
X0145315Y0227914D01*
X0145374Y0227804D01*
X0145430Y0227692D01*
X0145482Y0227578D01*
X0145530Y0227463D01*
X0145575Y0227347D01*
X0145615Y0227228D01*
X0145653Y0227109D01*
X0145686Y0226989D01*
X0145715Y0226867D01*
X0145741Y0226745D01*
X0145763Y0226622D01*
X0145780Y0226498D01*
X0145794Y0226374D01*
X0145804Y0226250D01*
X0145810Y0226125D01*
X0145812Y0226000D01*
X0145810Y0225875D01*
X0145804Y0225750D01*
X0145794Y0225626D01*
X0145780Y0225502D01*
X0145763Y0225378D01*
X0145741Y0225255D01*
X0145715Y0225133D01*
X0145686Y0225011D01*
X0145653Y0224891D01*
X0145615Y0224772D01*
X0145575Y0224653D01*
X0145530Y0224537D01*
X0145482Y0224422D01*
X0145430Y0224308D01*
X0145374Y0224196D01*
X0145315Y0224086D01*
X0145253Y0223978D01*
X0145187Y0223871D01*
X0145118Y0223767D01*
X0145045Y0223666D01*
X0144970Y0223566D01*
X0144891Y0223469D01*
X0144809Y0223375D01*
X0144724Y0223283D01*
X0144637Y0223194D01*
X0144546Y0223108D01*
X0144453Y0223025D01*
X0144357Y0222944D01*
X0144259Y0222867D01*
X0144159Y0222793D01*
X0144056Y0222722D01*
X0143951Y0222655D01*
X0143843Y0222590D01*
X0143734Y0222530D01*
X0143623Y0222472D01*
X0143510Y0222419D01*
X0143396Y0222369D01*
X0143280Y0222322D01*
X0143163Y0222280D01*
X0143044Y0222241D01*
X0142924Y0222205D01*
X0142803Y0222174D01*
X0142681Y0222146D01*
X0142559Y0222123D01*
X0142435Y0222103D01*
X0142311Y0222087D01*
X0142187Y0222075D01*
X0142062Y0222067D01*
X0141937Y0222063D01*
X0141813Y0222063D01*
X0141688Y0222067D01*
X0141563Y0222075D01*
X0141439Y0222087D01*
X0141315Y0222103D01*
X0141191Y0222123D01*
X0141069Y0222146D01*
X0140947Y0222174D01*
X0140826Y0222205D01*
X0140706Y0222241D01*
X0140587Y0222280D01*
X0140470Y0222322D01*
X0140354Y0222369D01*
X0140240Y0222419D01*
X0140127Y0222472D01*
X0140016Y0222530D01*
X0139906Y0222590D01*
X0139799Y0222655D01*
X0139694Y0222722D01*
X0139591Y0222793D01*
X0139491Y0222867D01*
X0139393Y0222944D01*
X0139297Y0223025D01*
X0139204Y0223108D01*
X0139113Y0223194D01*
X0139026Y0223283D01*
X0138941Y0223375D01*
X0138859Y0223469D01*
X0138780Y0223566D01*
X0138705Y0223666D01*
X0138632Y0223767D01*
X0138563Y0223871D01*
X0138497Y0223978D01*
X0138435Y0224086D01*
X0138376Y0224196D01*
X0138320Y0224308D01*
X0138268Y0224422D01*
X0138220Y0224537D01*
X0138175Y0224653D01*
X0138135Y0224772D01*
X0138097Y0224891D01*
X0138064Y0225011D01*
X0138035Y0225133D01*
X0138009Y0225255D01*
X0137987Y0225378D01*
X0137970Y0225502D01*
X0137956Y0225626D01*
X0137946Y0225750D01*
X0137940Y0225875D01*
X0137938Y0226000D01*
X0069016Y0233500D02*
X0069018Y0233562D01*
X0069024Y0233625D01*
X0069034Y0233686D01*
X0069048Y0233747D01*
X0069065Y0233807D01*
X0069086Y0233866D01*
X0069112Y0233923D01*
X0069140Y0233978D01*
X0069172Y0234032D01*
X0069208Y0234083D01*
X0069246Y0234133D01*
X0069288Y0234179D01*
X0069332Y0234223D01*
X0069380Y0234264D01*
X0069429Y0234302D01*
X0069481Y0234336D01*
X0069535Y0234367D01*
X0069591Y0234395D01*
X0069649Y0234419D01*
X0069708Y0234440D01*
X0069768Y0234456D01*
X0069829Y0234469D01*
X0069891Y0234478D01*
X0069953Y0234483D01*
X0070016Y0234484D01*
X0070078Y0234481D01*
X0070140Y0234474D01*
X0070202Y0234463D01*
X0070262Y0234448D01*
X0070322Y0234430D01*
X0070380Y0234408D01*
X0070437Y0234382D01*
X0070492Y0234352D01*
X0070545Y0234319D01*
X0070596Y0234283D01*
X0070644Y0234244D01*
X0070690Y0234201D01*
X0070733Y0234156D01*
X0070773Y0234108D01*
X0070810Y0234058D01*
X0070844Y0234005D01*
X0070875Y0233951D01*
X0070901Y0233895D01*
X0070925Y0233837D01*
X0070944Y0233777D01*
X0070960Y0233717D01*
X0070972Y0233655D01*
X0070980Y0233594D01*
X0070984Y0233531D01*
X0070984Y0233469D01*
X0070980Y0233406D01*
X0070972Y0233345D01*
X0070960Y0233283D01*
X0070944Y0233223D01*
X0070925Y0233163D01*
X0070901Y0233105D01*
X0070875Y0233049D01*
X0070844Y0232995D01*
X0070810Y0232942D01*
X0070773Y0232892D01*
X0070733Y0232844D01*
X0070690Y0232799D01*
X0070644Y0232756D01*
X0070596Y0232717D01*
X0070545Y0232681D01*
X0070492Y0232648D01*
X0070437Y0232618D01*
X0070380Y0232592D01*
X0070322Y0232570D01*
X0070262Y0232552D01*
X0070202Y0232537D01*
X0070140Y0232526D01*
X0070078Y0232519D01*
X0070016Y0232516D01*
X0069953Y0232517D01*
X0069891Y0232522D01*
X0069829Y0232531D01*
X0069768Y0232544D01*
X0069708Y0232560D01*
X0069649Y0232581D01*
X0069591Y0232605D01*
X0069535Y0232633D01*
X0069481Y0232664D01*
X0069429Y0232698D01*
X0069380Y0232736D01*
X0069332Y0232777D01*
X0069288Y0232821D01*
X0069246Y0232867D01*
X0069208Y0232917D01*
X0069172Y0232968D01*
X0069140Y0233022D01*
X0069112Y0233077D01*
X0069086Y0233134D01*
X0069065Y0233193D01*
X0069048Y0233253D01*
X0069034Y0233314D01*
X0069024Y0233375D01*
X0069018Y0233438D01*
X0069016Y0233500D01*
X0065891Y0233500D02*
X0065893Y0233562D01*
X0065899Y0233625D01*
X0065909Y0233686D01*
X0065923Y0233747D01*
X0065940Y0233807D01*
X0065961Y0233866D01*
X0065987Y0233923D01*
X0066015Y0233978D01*
X0066047Y0234032D01*
X0066083Y0234083D01*
X0066121Y0234133D01*
X0066163Y0234179D01*
X0066207Y0234223D01*
X0066255Y0234264D01*
X0066304Y0234302D01*
X0066356Y0234336D01*
X0066410Y0234367D01*
X0066466Y0234395D01*
X0066524Y0234419D01*
X0066583Y0234440D01*
X0066643Y0234456D01*
X0066704Y0234469D01*
X0066766Y0234478D01*
X0066828Y0234483D01*
X0066891Y0234484D01*
X0066953Y0234481D01*
X0067015Y0234474D01*
X0067077Y0234463D01*
X0067137Y0234448D01*
X0067197Y0234430D01*
X0067255Y0234408D01*
X0067312Y0234382D01*
X0067367Y0234352D01*
X0067420Y0234319D01*
X0067471Y0234283D01*
X0067519Y0234244D01*
X0067565Y0234201D01*
X0067608Y0234156D01*
X0067648Y0234108D01*
X0067685Y0234058D01*
X0067719Y0234005D01*
X0067750Y0233951D01*
X0067776Y0233895D01*
X0067800Y0233837D01*
X0067819Y0233777D01*
X0067835Y0233717D01*
X0067847Y0233655D01*
X0067855Y0233594D01*
X0067859Y0233531D01*
X0067859Y0233469D01*
X0067855Y0233406D01*
X0067847Y0233345D01*
X0067835Y0233283D01*
X0067819Y0233223D01*
X0067800Y0233163D01*
X0067776Y0233105D01*
X0067750Y0233049D01*
X0067719Y0232995D01*
X0067685Y0232942D01*
X0067648Y0232892D01*
X0067608Y0232844D01*
X0067565Y0232799D01*
X0067519Y0232756D01*
X0067471Y0232717D01*
X0067420Y0232681D01*
X0067367Y0232648D01*
X0067312Y0232618D01*
X0067255Y0232592D01*
X0067197Y0232570D01*
X0067137Y0232552D01*
X0067077Y0232537D01*
X0067015Y0232526D01*
X0066953Y0232519D01*
X0066891Y0232516D01*
X0066828Y0232517D01*
X0066766Y0232522D01*
X0066704Y0232531D01*
X0066643Y0232544D01*
X0066583Y0232560D01*
X0066524Y0232581D01*
X0066466Y0232605D01*
X0066410Y0232633D01*
X0066356Y0232664D01*
X0066304Y0232698D01*
X0066255Y0232736D01*
X0066207Y0232777D01*
X0066163Y0232821D01*
X0066121Y0232867D01*
X0066083Y0232917D01*
X0066047Y0232968D01*
X0066015Y0233022D01*
X0065987Y0233077D01*
X0065961Y0233134D01*
X0065940Y0233193D01*
X0065923Y0233253D01*
X0065909Y0233314D01*
X0065899Y0233375D01*
X0065893Y0233438D01*
X0065891Y0233500D01*
X0065891Y0236625D02*
X0065893Y0236687D01*
X0065899Y0236750D01*
X0065909Y0236811D01*
X0065923Y0236872D01*
X0065940Y0236932D01*
X0065961Y0236991D01*
X0065987Y0237048D01*
X0066015Y0237103D01*
X0066047Y0237157D01*
X0066083Y0237208D01*
X0066121Y0237258D01*
X0066163Y0237304D01*
X0066207Y0237348D01*
X0066255Y0237389D01*
X0066304Y0237427D01*
X0066356Y0237461D01*
X0066410Y0237492D01*
X0066466Y0237520D01*
X0066524Y0237544D01*
X0066583Y0237565D01*
X0066643Y0237581D01*
X0066704Y0237594D01*
X0066766Y0237603D01*
X0066828Y0237608D01*
X0066891Y0237609D01*
X0066953Y0237606D01*
X0067015Y0237599D01*
X0067077Y0237588D01*
X0067137Y0237573D01*
X0067197Y0237555D01*
X0067255Y0237533D01*
X0067312Y0237507D01*
X0067367Y0237477D01*
X0067420Y0237444D01*
X0067471Y0237408D01*
X0067519Y0237369D01*
X0067565Y0237326D01*
X0067608Y0237281D01*
X0067648Y0237233D01*
X0067685Y0237183D01*
X0067719Y0237130D01*
X0067750Y0237076D01*
X0067776Y0237020D01*
X0067800Y0236962D01*
X0067819Y0236902D01*
X0067835Y0236842D01*
X0067847Y0236780D01*
X0067855Y0236719D01*
X0067859Y0236656D01*
X0067859Y0236594D01*
X0067855Y0236531D01*
X0067847Y0236470D01*
X0067835Y0236408D01*
X0067819Y0236348D01*
X0067800Y0236288D01*
X0067776Y0236230D01*
X0067750Y0236174D01*
X0067719Y0236120D01*
X0067685Y0236067D01*
X0067648Y0236017D01*
X0067608Y0235969D01*
X0067565Y0235924D01*
X0067519Y0235881D01*
X0067471Y0235842D01*
X0067420Y0235806D01*
X0067367Y0235773D01*
X0067312Y0235743D01*
X0067255Y0235717D01*
X0067197Y0235695D01*
X0067137Y0235677D01*
X0067077Y0235662D01*
X0067015Y0235651D01*
X0066953Y0235644D01*
X0066891Y0235641D01*
X0066828Y0235642D01*
X0066766Y0235647D01*
X0066704Y0235656D01*
X0066643Y0235669D01*
X0066583Y0235685D01*
X0066524Y0235706D01*
X0066466Y0235730D01*
X0066410Y0235758D01*
X0066356Y0235789D01*
X0066304Y0235823D01*
X0066255Y0235861D01*
X0066207Y0235902D01*
X0066163Y0235946D01*
X0066121Y0235992D01*
X0066083Y0236042D01*
X0066047Y0236093D01*
X0066015Y0236147D01*
X0065987Y0236202D01*
X0065961Y0236259D01*
X0065940Y0236318D01*
X0065923Y0236378D01*
X0065909Y0236439D01*
X0065899Y0236500D01*
X0065893Y0236563D01*
X0065891Y0236625D01*
X0065891Y0239750D02*
X0065893Y0239812D01*
X0065899Y0239875D01*
X0065909Y0239936D01*
X0065923Y0239997D01*
X0065940Y0240057D01*
X0065961Y0240116D01*
X0065987Y0240173D01*
X0066015Y0240228D01*
X0066047Y0240282D01*
X0066083Y0240333D01*
X0066121Y0240383D01*
X0066163Y0240429D01*
X0066207Y0240473D01*
X0066255Y0240514D01*
X0066304Y0240552D01*
X0066356Y0240586D01*
X0066410Y0240617D01*
X0066466Y0240645D01*
X0066524Y0240669D01*
X0066583Y0240690D01*
X0066643Y0240706D01*
X0066704Y0240719D01*
X0066766Y0240728D01*
X0066828Y0240733D01*
X0066891Y0240734D01*
X0066953Y0240731D01*
X0067015Y0240724D01*
X0067077Y0240713D01*
X0067137Y0240698D01*
X0067197Y0240680D01*
X0067255Y0240658D01*
X0067312Y0240632D01*
X0067367Y0240602D01*
X0067420Y0240569D01*
X0067471Y0240533D01*
X0067519Y0240494D01*
X0067565Y0240451D01*
X0067608Y0240406D01*
X0067648Y0240358D01*
X0067685Y0240308D01*
X0067719Y0240255D01*
X0067750Y0240201D01*
X0067776Y0240145D01*
X0067800Y0240087D01*
X0067819Y0240027D01*
X0067835Y0239967D01*
X0067847Y0239905D01*
X0067855Y0239844D01*
X0067859Y0239781D01*
X0067859Y0239719D01*
X0067855Y0239656D01*
X0067847Y0239595D01*
X0067835Y0239533D01*
X0067819Y0239473D01*
X0067800Y0239413D01*
X0067776Y0239355D01*
X0067750Y0239299D01*
X0067719Y0239245D01*
X0067685Y0239192D01*
X0067648Y0239142D01*
X0067608Y0239094D01*
X0067565Y0239049D01*
X0067519Y0239006D01*
X0067471Y0238967D01*
X0067420Y0238931D01*
X0067367Y0238898D01*
X0067312Y0238868D01*
X0067255Y0238842D01*
X0067197Y0238820D01*
X0067137Y0238802D01*
X0067077Y0238787D01*
X0067015Y0238776D01*
X0066953Y0238769D01*
X0066891Y0238766D01*
X0066828Y0238767D01*
X0066766Y0238772D01*
X0066704Y0238781D01*
X0066643Y0238794D01*
X0066583Y0238810D01*
X0066524Y0238831D01*
X0066466Y0238855D01*
X0066410Y0238883D01*
X0066356Y0238914D01*
X0066304Y0238948D01*
X0066255Y0238986D01*
X0066207Y0239027D01*
X0066163Y0239071D01*
X0066121Y0239117D01*
X0066083Y0239167D01*
X0066047Y0239218D01*
X0066015Y0239272D01*
X0065987Y0239327D01*
X0065961Y0239384D01*
X0065940Y0239443D01*
X0065923Y0239503D01*
X0065909Y0239564D01*
X0065899Y0239625D01*
X0065893Y0239688D01*
X0065891Y0239750D01*
X0062766Y0239750D02*
X0062768Y0239812D01*
X0062774Y0239875D01*
X0062784Y0239936D01*
X0062798Y0239997D01*
X0062815Y0240057D01*
X0062836Y0240116D01*
X0062862Y0240173D01*
X0062890Y0240228D01*
X0062922Y0240282D01*
X0062958Y0240333D01*
X0062996Y0240383D01*
X0063038Y0240429D01*
X0063082Y0240473D01*
X0063130Y0240514D01*
X0063179Y0240552D01*
X0063231Y0240586D01*
X0063285Y0240617D01*
X0063341Y0240645D01*
X0063399Y0240669D01*
X0063458Y0240690D01*
X0063518Y0240706D01*
X0063579Y0240719D01*
X0063641Y0240728D01*
X0063703Y0240733D01*
X0063766Y0240734D01*
X0063828Y0240731D01*
X0063890Y0240724D01*
X0063952Y0240713D01*
X0064012Y0240698D01*
X0064072Y0240680D01*
X0064130Y0240658D01*
X0064187Y0240632D01*
X0064242Y0240602D01*
X0064295Y0240569D01*
X0064346Y0240533D01*
X0064394Y0240494D01*
X0064440Y0240451D01*
X0064483Y0240406D01*
X0064523Y0240358D01*
X0064560Y0240308D01*
X0064594Y0240255D01*
X0064625Y0240201D01*
X0064651Y0240145D01*
X0064675Y0240087D01*
X0064694Y0240027D01*
X0064710Y0239967D01*
X0064722Y0239905D01*
X0064730Y0239844D01*
X0064734Y0239781D01*
X0064734Y0239719D01*
X0064730Y0239656D01*
X0064722Y0239595D01*
X0064710Y0239533D01*
X0064694Y0239473D01*
X0064675Y0239413D01*
X0064651Y0239355D01*
X0064625Y0239299D01*
X0064594Y0239245D01*
X0064560Y0239192D01*
X0064523Y0239142D01*
X0064483Y0239094D01*
X0064440Y0239049D01*
X0064394Y0239006D01*
X0064346Y0238967D01*
X0064295Y0238931D01*
X0064242Y0238898D01*
X0064187Y0238868D01*
X0064130Y0238842D01*
X0064072Y0238820D01*
X0064012Y0238802D01*
X0063952Y0238787D01*
X0063890Y0238776D01*
X0063828Y0238769D01*
X0063766Y0238766D01*
X0063703Y0238767D01*
X0063641Y0238772D01*
X0063579Y0238781D01*
X0063518Y0238794D01*
X0063458Y0238810D01*
X0063399Y0238831D01*
X0063341Y0238855D01*
X0063285Y0238883D01*
X0063231Y0238914D01*
X0063179Y0238948D01*
X0063130Y0238986D01*
X0063082Y0239027D01*
X0063038Y0239071D01*
X0062996Y0239117D01*
X0062958Y0239167D01*
X0062922Y0239218D01*
X0062890Y0239272D01*
X0062862Y0239327D01*
X0062836Y0239384D01*
X0062815Y0239443D01*
X0062798Y0239503D01*
X0062784Y0239564D01*
X0062774Y0239625D01*
X0062768Y0239688D01*
X0062766Y0239750D01*
X0062766Y0236625D02*
X0062768Y0236687D01*
X0062774Y0236750D01*
X0062784Y0236811D01*
X0062798Y0236872D01*
X0062815Y0236932D01*
X0062836Y0236991D01*
X0062862Y0237048D01*
X0062890Y0237103D01*
X0062922Y0237157D01*
X0062958Y0237208D01*
X0062996Y0237258D01*
X0063038Y0237304D01*
X0063082Y0237348D01*
X0063130Y0237389D01*
X0063179Y0237427D01*
X0063231Y0237461D01*
X0063285Y0237492D01*
X0063341Y0237520D01*
X0063399Y0237544D01*
X0063458Y0237565D01*
X0063518Y0237581D01*
X0063579Y0237594D01*
X0063641Y0237603D01*
X0063703Y0237608D01*
X0063766Y0237609D01*
X0063828Y0237606D01*
X0063890Y0237599D01*
X0063952Y0237588D01*
X0064012Y0237573D01*
X0064072Y0237555D01*
X0064130Y0237533D01*
X0064187Y0237507D01*
X0064242Y0237477D01*
X0064295Y0237444D01*
X0064346Y0237408D01*
X0064394Y0237369D01*
X0064440Y0237326D01*
X0064483Y0237281D01*
X0064523Y0237233D01*
X0064560Y0237183D01*
X0064594Y0237130D01*
X0064625Y0237076D01*
X0064651Y0237020D01*
X0064675Y0236962D01*
X0064694Y0236902D01*
X0064710Y0236842D01*
X0064722Y0236780D01*
X0064730Y0236719D01*
X0064734Y0236656D01*
X0064734Y0236594D01*
X0064730Y0236531D01*
X0064722Y0236470D01*
X0064710Y0236408D01*
X0064694Y0236348D01*
X0064675Y0236288D01*
X0064651Y0236230D01*
X0064625Y0236174D01*
X0064594Y0236120D01*
X0064560Y0236067D01*
X0064523Y0236017D01*
X0064483Y0235969D01*
X0064440Y0235924D01*
X0064394Y0235881D01*
X0064346Y0235842D01*
X0064295Y0235806D01*
X0064242Y0235773D01*
X0064187Y0235743D01*
X0064130Y0235717D01*
X0064072Y0235695D01*
X0064012Y0235677D01*
X0063952Y0235662D01*
X0063890Y0235651D01*
X0063828Y0235644D01*
X0063766Y0235641D01*
X0063703Y0235642D01*
X0063641Y0235647D01*
X0063579Y0235656D01*
X0063518Y0235669D01*
X0063458Y0235685D01*
X0063399Y0235706D01*
X0063341Y0235730D01*
X0063285Y0235758D01*
X0063231Y0235789D01*
X0063179Y0235823D01*
X0063130Y0235861D01*
X0063082Y0235902D01*
X0063038Y0235946D01*
X0062996Y0235992D01*
X0062958Y0236042D01*
X0062922Y0236093D01*
X0062890Y0236147D01*
X0062862Y0236202D01*
X0062836Y0236259D01*
X0062815Y0236318D01*
X0062798Y0236378D01*
X0062784Y0236439D01*
X0062774Y0236500D01*
X0062768Y0236563D01*
X0062766Y0236625D01*
X0062766Y0233500D02*
X0062768Y0233562D01*
X0062774Y0233625D01*
X0062784Y0233686D01*
X0062798Y0233747D01*
X0062815Y0233807D01*
X0062836Y0233866D01*
X0062862Y0233923D01*
X0062890Y0233978D01*
X0062922Y0234032D01*
X0062958Y0234083D01*
X0062996Y0234133D01*
X0063038Y0234179D01*
X0063082Y0234223D01*
X0063130Y0234264D01*
X0063179Y0234302D01*
X0063231Y0234336D01*
X0063285Y0234367D01*
X0063341Y0234395D01*
X0063399Y0234419D01*
X0063458Y0234440D01*
X0063518Y0234456D01*
X0063579Y0234469D01*
X0063641Y0234478D01*
X0063703Y0234483D01*
X0063766Y0234484D01*
X0063828Y0234481D01*
X0063890Y0234474D01*
X0063952Y0234463D01*
X0064012Y0234448D01*
X0064072Y0234430D01*
X0064130Y0234408D01*
X0064187Y0234382D01*
X0064242Y0234352D01*
X0064295Y0234319D01*
X0064346Y0234283D01*
X0064394Y0234244D01*
X0064440Y0234201D01*
X0064483Y0234156D01*
X0064523Y0234108D01*
X0064560Y0234058D01*
X0064594Y0234005D01*
X0064625Y0233951D01*
X0064651Y0233895D01*
X0064675Y0233837D01*
X0064694Y0233777D01*
X0064710Y0233717D01*
X0064722Y0233655D01*
X0064730Y0233594D01*
X0064734Y0233531D01*
X0064734Y0233469D01*
X0064730Y0233406D01*
X0064722Y0233345D01*
X0064710Y0233283D01*
X0064694Y0233223D01*
X0064675Y0233163D01*
X0064651Y0233105D01*
X0064625Y0233049D01*
X0064594Y0232995D01*
X0064560Y0232942D01*
X0064523Y0232892D01*
X0064483Y0232844D01*
X0064440Y0232799D01*
X0064394Y0232756D01*
X0064346Y0232717D01*
X0064295Y0232681D01*
X0064242Y0232648D01*
X0064187Y0232618D01*
X0064130Y0232592D01*
X0064072Y0232570D01*
X0064012Y0232552D01*
X0063952Y0232537D01*
X0063890Y0232526D01*
X0063828Y0232519D01*
X0063766Y0232516D01*
X0063703Y0232517D01*
X0063641Y0232522D01*
X0063579Y0232531D01*
X0063518Y0232544D01*
X0063458Y0232560D01*
X0063399Y0232581D01*
X0063341Y0232605D01*
X0063285Y0232633D01*
X0063231Y0232664D01*
X0063179Y0232698D01*
X0063130Y0232736D01*
X0063082Y0232777D01*
X0063038Y0232821D01*
X0062996Y0232867D01*
X0062958Y0232917D01*
X0062922Y0232968D01*
X0062890Y0233022D01*
X0062862Y0233077D01*
X0062836Y0233134D01*
X0062815Y0233193D01*
X0062798Y0233253D01*
X0062784Y0233314D01*
X0062774Y0233375D01*
X0062768Y0233438D01*
X0062766Y0233500D01*
X0069016Y0236625D02*
X0069018Y0236687D01*
X0069024Y0236750D01*
X0069034Y0236811D01*
X0069048Y0236872D01*
X0069065Y0236932D01*
X0069086Y0236991D01*
X0069112Y0237048D01*
X0069140Y0237103D01*
X0069172Y0237157D01*
X0069208Y0237208D01*
X0069246Y0237258D01*
X0069288Y0237304D01*
X0069332Y0237348D01*
X0069380Y0237389D01*
X0069429Y0237427D01*
X0069481Y0237461D01*
X0069535Y0237492D01*
X0069591Y0237520D01*
X0069649Y0237544D01*
X0069708Y0237565D01*
X0069768Y0237581D01*
X0069829Y0237594D01*
X0069891Y0237603D01*
X0069953Y0237608D01*
X0070016Y0237609D01*
X0070078Y0237606D01*
X0070140Y0237599D01*
X0070202Y0237588D01*
X0070262Y0237573D01*
X0070322Y0237555D01*
X0070380Y0237533D01*
X0070437Y0237507D01*
X0070492Y0237477D01*
X0070545Y0237444D01*
X0070596Y0237408D01*
X0070644Y0237369D01*
X0070690Y0237326D01*
X0070733Y0237281D01*
X0070773Y0237233D01*
X0070810Y0237183D01*
X0070844Y0237130D01*
X0070875Y0237076D01*
X0070901Y0237020D01*
X0070925Y0236962D01*
X0070944Y0236902D01*
X0070960Y0236842D01*
X0070972Y0236780D01*
X0070980Y0236719D01*
X0070984Y0236656D01*
X0070984Y0236594D01*
X0070980Y0236531D01*
X0070972Y0236470D01*
X0070960Y0236408D01*
X0070944Y0236348D01*
X0070925Y0236288D01*
X0070901Y0236230D01*
X0070875Y0236174D01*
X0070844Y0236120D01*
X0070810Y0236067D01*
X0070773Y0236017D01*
X0070733Y0235969D01*
X0070690Y0235924D01*
X0070644Y0235881D01*
X0070596Y0235842D01*
X0070545Y0235806D01*
X0070492Y0235773D01*
X0070437Y0235743D01*
X0070380Y0235717D01*
X0070322Y0235695D01*
X0070262Y0235677D01*
X0070202Y0235662D01*
X0070140Y0235651D01*
X0070078Y0235644D01*
X0070016Y0235641D01*
X0069953Y0235642D01*
X0069891Y0235647D01*
X0069829Y0235656D01*
X0069768Y0235669D01*
X0069708Y0235685D01*
X0069649Y0235706D01*
X0069591Y0235730D01*
X0069535Y0235758D01*
X0069481Y0235789D01*
X0069429Y0235823D01*
X0069380Y0235861D01*
X0069332Y0235902D01*
X0069288Y0235946D01*
X0069246Y0235992D01*
X0069208Y0236042D01*
X0069172Y0236093D01*
X0069140Y0236147D01*
X0069112Y0236202D01*
X0069086Y0236259D01*
X0069065Y0236318D01*
X0069048Y0236378D01*
X0069034Y0236439D01*
X0069024Y0236500D01*
X0069018Y0236563D01*
X0069016Y0236625D01*
X0069016Y0239750D02*
X0069018Y0239812D01*
X0069024Y0239875D01*
X0069034Y0239936D01*
X0069048Y0239997D01*
X0069065Y0240057D01*
X0069086Y0240116D01*
X0069112Y0240173D01*
X0069140Y0240228D01*
X0069172Y0240282D01*
X0069208Y0240333D01*
X0069246Y0240383D01*
X0069288Y0240429D01*
X0069332Y0240473D01*
X0069380Y0240514D01*
X0069429Y0240552D01*
X0069481Y0240586D01*
X0069535Y0240617D01*
X0069591Y0240645D01*
X0069649Y0240669D01*
X0069708Y0240690D01*
X0069768Y0240706D01*
X0069829Y0240719D01*
X0069891Y0240728D01*
X0069953Y0240733D01*
X0070016Y0240734D01*
X0070078Y0240731D01*
X0070140Y0240724D01*
X0070202Y0240713D01*
X0070262Y0240698D01*
X0070322Y0240680D01*
X0070380Y0240658D01*
X0070437Y0240632D01*
X0070492Y0240602D01*
X0070545Y0240569D01*
X0070596Y0240533D01*
X0070644Y0240494D01*
X0070690Y0240451D01*
X0070733Y0240406D01*
X0070773Y0240358D01*
X0070810Y0240308D01*
X0070844Y0240255D01*
X0070875Y0240201D01*
X0070901Y0240145D01*
X0070925Y0240087D01*
X0070944Y0240027D01*
X0070960Y0239967D01*
X0070972Y0239905D01*
X0070980Y0239844D01*
X0070984Y0239781D01*
X0070984Y0239719D01*
X0070980Y0239656D01*
X0070972Y0239595D01*
X0070960Y0239533D01*
X0070944Y0239473D01*
X0070925Y0239413D01*
X0070901Y0239355D01*
X0070875Y0239299D01*
X0070844Y0239245D01*
X0070810Y0239192D01*
X0070773Y0239142D01*
X0070733Y0239094D01*
X0070690Y0239049D01*
X0070644Y0239006D01*
X0070596Y0238967D01*
X0070545Y0238931D01*
X0070492Y0238898D01*
X0070437Y0238868D01*
X0070380Y0238842D01*
X0070322Y0238820D01*
X0070262Y0238802D01*
X0070202Y0238787D01*
X0070140Y0238776D01*
X0070078Y0238769D01*
X0070016Y0238766D01*
X0069953Y0238767D01*
X0069891Y0238772D01*
X0069829Y0238781D01*
X0069768Y0238794D01*
X0069708Y0238810D01*
X0069649Y0238831D01*
X0069591Y0238855D01*
X0069535Y0238883D01*
X0069481Y0238914D01*
X0069429Y0238948D01*
X0069380Y0238986D01*
X0069332Y0239027D01*
X0069288Y0239071D01*
X0069246Y0239117D01*
X0069208Y0239167D01*
X0069172Y0239218D01*
X0069140Y0239272D01*
X0069112Y0239327D01*
X0069086Y0239384D01*
X0069065Y0239443D01*
X0069048Y0239503D01*
X0069034Y0239564D01*
X0069024Y0239625D01*
X0069018Y0239688D01*
X0069016Y0239750D01*
X0053076Y0251000D02*
X0053078Y0251158D01*
X0053084Y0251316D01*
X0053094Y0251474D01*
X0053108Y0251632D01*
X0053126Y0251789D01*
X0053147Y0251946D01*
X0053173Y0252102D01*
X0053203Y0252258D01*
X0053236Y0252413D01*
X0053274Y0252566D01*
X0053315Y0252719D01*
X0053360Y0252871D01*
X0053409Y0253022D01*
X0053462Y0253171D01*
X0053518Y0253319D01*
X0053578Y0253465D01*
X0053642Y0253610D01*
X0053710Y0253753D01*
X0053781Y0253895D01*
X0053855Y0254035D01*
X0053933Y0254172D01*
X0054015Y0254308D01*
X0054099Y0254442D01*
X0054188Y0254573D01*
X0054279Y0254702D01*
X0054374Y0254829D01*
X0054471Y0254954D01*
X0054572Y0255076D01*
X0054676Y0255195D01*
X0054783Y0255312D01*
X0054893Y0255426D01*
X0055006Y0255537D01*
X0055121Y0255646D01*
X0055239Y0255751D01*
X0055360Y0255853D01*
X0055483Y0255953D01*
X0055609Y0256049D01*
X0055737Y0256142D01*
X0055867Y0256232D01*
X0056000Y0256318D01*
X0056135Y0256402D01*
X0056271Y0256481D01*
X0056410Y0256558D01*
X0056551Y0256630D01*
X0056693Y0256700D01*
X0056837Y0256765D01*
X0056983Y0256827D01*
X0057130Y0256885D01*
X0057279Y0256940D01*
X0057429Y0256991D01*
X0057580Y0257038D01*
X0057732Y0257081D01*
X0057885Y0257120D01*
X0058040Y0257156D01*
X0058195Y0257187D01*
X0058351Y0257215D01*
X0058507Y0257239D01*
X0058664Y0257259D01*
X0058822Y0257275D01*
X0058979Y0257287D01*
X0059138Y0257295D01*
X0059296Y0257299D01*
X0059454Y0257299D01*
X0059612Y0257295D01*
X0059771Y0257287D01*
X0059928Y0257275D01*
X0060086Y0257259D01*
X0060243Y0257239D01*
X0060399Y0257215D01*
X0060555Y0257187D01*
X0060710Y0257156D01*
X0060865Y0257120D01*
X0061018Y0257081D01*
X0061170Y0257038D01*
X0061321Y0256991D01*
X0061471Y0256940D01*
X0061620Y0256885D01*
X0061767Y0256827D01*
X0061913Y0256765D01*
X0062057Y0256700D01*
X0062199Y0256630D01*
X0062340Y0256558D01*
X0062479Y0256481D01*
X0062615Y0256402D01*
X0062750Y0256318D01*
X0062883Y0256232D01*
X0063013Y0256142D01*
X0063141Y0256049D01*
X0063267Y0255953D01*
X0063390Y0255853D01*
X0063511Y0255751D01*
X0063629Y0255646D01*
X0063744Y0255537D01*
X0063857Y0255426D01*
X0063967Y0255312D01*
X0064074Y0255195D01*
X0064178Y0255076D01*
X0064279Y0254954D01*
X0064376Y0254829D01*
X0064471Y0254702D01*
X0064562Y0254573D01*
X0064651Y0254442D01*
X0064735Y0254308D01*
X0064817Y0254172D01*
X0064895Y0254035D01*
X0064969Y0253895D01*
X0065040Y0253753D01*
X0065108Y0253610D01*
X0065172Y0253465D01*
X0065232Y0253319D01*
X0065288Y0253171D01*
X0065341Y0253022D01*
X0065390Y0252871D01*
X0065435Y0252719D01*
X0065476Y0252566D01*
X0065514Y0252413D01*
X0065547Y0252258D01*
X0065577Y0252102D01*
X0065603Y0251946D01*
X0065624Y0251789D01*
X0065642Y0251632D01*
X0065656Y0251474D01*
X0065666Y0251316D01*
X0065672Y0251158D01*
X0065674Y0251000D01*
X0065672Y0250842D01*
X0065666Y0250684D01*
X0065656Y0250526D01*
X0065642Y0250368D01*
X0065624Y0250211D01*
X0065603Y0250054D01*
X0065577Y0249898D01*
X0065547Y0249742D01*
X0065514Y0249587D01*
X0065476Y0249434D01*
X0065435Y0249281D01*
X0065390Y0249129D01*
X0065341Y0248978D01*
X0065288Y0248829D01*
X0065232Y0248681D01*
X0065172Y0248535D01*
X0065108Y0248390D01*
X0065040Y0248247D01*
X0064969Y0248105D01*
X0064895Y0247965D01*
X0064817Y0247828D01*
X0064735Y0247692D01*
X0064651Y0247558D01*
X0064562Y0247427D01*
X0064471Y0247298D01*
X0064376Y0247171D01*
X0064279Y0247046D01*
X0064178Y0246924D01*
X0064074Y0246805D01*
X0063967Y0246688D01*
X0063857Y0246574D01*
X0063744Y0246463D01*
X0063629Y0246354D01*
X0063511Y0246249D01*
X0063390Y0246147D01*
X0063267Y0246047D01*
X0063141Y0245951D01*
X0063013Y0245858D01*
X0062883Y0245768D01*
X0062750Y0245682D01*
X0062615Y0245598D01*
X0062479Y0245519D01*
X0062340Y0245442D01*
X0062199Y0245370D01*
X0062057Y0245300D01*
X0061913Y0245235D01*
X0061767Y0245173D01*
X0061620Y0245115D01*
X0061471Y0245060D01*
X0061321Y0245009D01*
X0061170Y0244962D01*
X0061018Y0244919D01*
X0060865Y0244880D01*
X0060710Y0244844D01*
X0060555Y0244813D01*
X0060399Y0244785D01*
X0060243Y0244761D01*
X0060086Y0244741D01*
X0059928Y0244725D01*
X0059771Y0244713D01*
X0059612Y0244705D01*
X0059454Y0244701D01*
X0059296Y0244701D01*
X0059138Y0244705D01*
X0058979Y0244713D01*
X0058822Y0244725D01*
X0058664Y0244741D01*
X0058507Y0244761D01*
X0058351Y0244785D01*
X0058195Y0244813D01*
X0058040Y0244844D01*
X0057885Y0244880D01*
X0057732Y0244919D01*
X0057580Y0244962D01*
X0057429Y0245009D01*
X0057279Y0245060D01*
X0057130Y0245115D01*
X0056983Y0245173D01*
X0056837Y0245235D01*
X0056693Y0245300D01*
X0056551Y0245370D01*
X0056410Y0245442D01*
X0056271Y0245519D01*
X0056135Y0245598D01*
X0056000Y0245682D01*
X0055867Y0245768D01*
X0055737Y0245858D01*
X0055609Y0245951D01*
X0055483Y0246047D01*
X0055360Y0246147D01*
X0055239Y0246249D01*
X0055121Y0246354D01*
X0055006Y0246463D01*
X0054893Y0246574D01*
X0054783Y0246688D01*
X0054676Y0246805D01*
X0054572Y0246924D01*
X0054471Y0247046D01*
X0054374Y0247171D01*
X0054279Y0247298D01*
X0054188Y0247427D01*
X0054099Y0247558D01*
X0054015Y0247692D01*
X0053933Y0247828D01*
X0053855Y0247965D01*
X0053781Y0248105D01*
X0053710Y0248247D01*
X0053642Y0248390D01*
X0053578Y0248535D01*
X0053518Y0248681D01*
X0053462Y0248829D01*
X0053409Y0248978D01*
X0053360Y0249129D01*
X0053315Y0249281D01*
X0053274Y0249434D01*
X0053236Y0249587D01*
X0053203Y0249742D01*
X0053173Y0249898D01*
X0053147Y0250054D01*
X0053126Y0250211D01*
X0053108Y0250368D01*
X0053094Y0250526D01*
X0053084Y0250684D01*
X0053078Y0250842D01*
X0053076Y0251000D01*
X0047938Y0226000D02*
X0047940Y0226125D01*
X0047946Y0226250D01*
X0047956Y0226374D01*
X0047970Y0226498D01*
X0047987Y0226622D01*
X0048009Y0226745D01*
X0048035Y0226867D01*
X0048064Y0226989D01*
X0048097Y0227109D01*
X0048135Y0227228D01*
X0048175Y0227347D01*
X0048220Y0227463D01*
X0048268Y0227578D01*
X0048320Y0227692D01*
X0048376Y0227804D01*
X0048435Y0227914D01*
X0048497Y0228022D01*
X0048563Y0228129D01*
X0048632Y0228233D01*
X0048705Y0228334D01*
X0048780Y0228434D01*
X0048859Y0228531D01*
X0048941Y0228625D01*
X0049026Y0228717D01*
X0049113Y0228806D01*
X0049204Y0228892D01*
X0049297Y0228975D01*
X0049393Y0229056D01*
X0049491Y0229133D01*
X0049591Y0229207D01*
X0049694Y0229278D01*
X0049799Y0229345D01*
X0049907Y0229410D01*
X0050016Y0229470D01*
X0050127Y0229528D01*
X0050240Y0229581D01*
X0050354Y0229631D01*
X0050470Y0229678D01*
X0050587Y0229720D01*
X0050706Y0229759D01*
X0050826Y0229795D01*
X0050947Y0229826D01*
X0051069Y0229854D01*
X0051191Y0229877D01*
X0051315Y0229897D01*
X0051439Y0229913D01*
X0051563Y0229925D01*
X0051688Y0229933D01*
X0051813Y0229937D01*
X0051937Y0229937D01*
X0052062Y0229933D01*
X0052187Y0229925D01*
X0052311Y0229913D01*
X0052435Y0229897D01*
X0052559Y0229877D01*
X0052681Y0229854D01*
X0052803Y0229826D01*
X0052924Y0229795D01*
X0053044Y0229759D01*
X0053163Y0229720D01*
X0053280Y0229678D01*
X0053396Y0229631D01*
X0053510Y0229581D01*
X0053623Y0229528D01*
X0053734Y0229470D01*
X0053844Y0229410D01*
X0053951Y0229345D01*
X0054056Y0229278D01*
X0054159Y0229207D01*
X0054259Y0229133D01*
X0054357Y0229056D01*
X0054453Y0228975D01*
X0054546Y0228892D01*
X0054637Y0228806D01*
X0054724Y0228717D01*
X0054809Y0228625D01*
X0054891Y0228531D01*
X0054970Y0228434D01*
X0055045Y0228334D01*
X0055118Y0228233D01*
X0055187Y0228129D01*
X0055253Y0228022D01*
X0055315Y0227914D01*
X0055374Y0227804D01*
X0055430Y0227692D01*
X0055482Y0227578D01*
X0055530Y0227463D01*
X0055575Y0227347D01*
X0055615Y0227228D01*
X0055653Y0227109D01*
X0055686Y0226989D01*
X0055715Y0226867D01*
X0055741Y0226745D01*
X0055763Y0226622D01*
X0055780Y0226498D01*
X0055794Y0226374D01*
X0055804Y0226250D01*
X0055810Y0226125D01*
X0055812Y0226000D01*
X0055810Y0225875D01*
X0055804Y0225750D01*
X0055794Y0225626D01*
X0055780Y0225502D01*
X0055763Y0225378D01*
X0055741Y0225255D01*
X0055715Y0225133D01*
X0055686Y0225011D01*
X0055653Y0224891D01*
X0055615Y0224772D01*
X0055575Y0224653D01*
X0055530Y0224537D01*
X0055482Y0224422D01*
X0055430Y0224308D01*
X0055374Y0224196D01*
X0055315Y0224086D01*
X0055253Y0223978D01*
X0055187Y0223871D01*
X0055118Y0223767D01*
X0055045Y0223666D01*
X0054970Y0223566D01*
X0054891Y0223469D01*
X0054809Y0223375D01*
X0054724Y0223283D01*
X0054637Y0223194D01*
X0054546Y0223108D01*
X0054453Y0223025D01*
X0054357Y0222944D01*
X0054259Y0222867D01*
X0054159Y0222793D01*
X0054056Y0222722D01*
X0053951Y0222655D01*
X0053843Y0222590D01*
X0053734Y0222530D01*
X0053623Y0222472D01*
X0053510Y0222419D01*
X0053396Y0222369D01*
X0053280Y0222322D01*
X0053163Y0222280D01*
X0053044Y0222241D01*
X0052924Y0222205D01*
X0052803Y0222174D01*
X0052681Y0222146D01*
X0052559Y0222123D01*
X0052435Y0222103D01*
X0052311Y0222087D01*
X0052187Y0222075D01*
X0052062Y0222067D01*
X0051937Y0222063D01*
X0051813Y0222063D01*
X0051688Y0222067D01*
X0051563Y0222075D01*
X0051439Y0222087D01*
X0051315Y0222103D01*
X0051191Y0222123D01*
X0051069Y0222146D01*
X0050947Y0222174D01*
X0050826Y0222205D01*
X0050706Y0222241D01*
X0050587Y0222280D01*
X0050470Y0222322D01*
X0050354Y0222369D01*
X0050240Y0222419D01*
X0050127Y0222472D01*
X0050016Y0222530D01*
X0049906Y0222590D01*
X0049799Y0222655D01*
X0049694Y0222722D01*
X0049591Y0222793D01*
X0049491Y0222867D01*
X0049393Y0222944D01*
X0049297Y0223025D01*
X0049204Y0223108D01*
X0049113Y0223194D01*
X0049026Y0223283D01*
X0048941Y0223375D01*
X0048859Y0223469D01*
X0048780Y0223566D01*
X0048705Y0223666D01*
X0048632Y0223767D01*
X0048563Y0223871D01*
X0048497Y0223978D01*
X0048435Y0224086D01*
X0048376Y0224196D01*
X0048320Y0224308D01*
X0048268Y0224422D01*
X0048220Y0224537D01*
X0048175Y0224653D01*
X0048135Y0224772D01*
X0048097Y0224891D01*
X0048064Y0225011D01*
X0048035Y0225133D01*
X0048009Y0225255D01*
X0047987Y0225378D01*
X0047970Y0225502D01*
X0047956Y0225626D01*
X0047946Y0225750D01*
X0047940Y0225875D01*
X0047938Y0226000D01*
D11*
X0076250Y0236625D02*
X0117500Y0236625D01*
X0117500Y0025375D02*
X0076250Y0025375D01*
M02*
